<?xml version="1.0" standalone="no"?>
<!DOCTYPE svg PUBLIC "-//W3C//DTD SVG 20010904//EN"
 "http://www.w3.org/TR/2001/REC-SVG-20010904/DTD/svg10.dtd">
<svg version="1.0" xmlns="http://www.w3.org/2000/svg"
 width="501.000000pt" height="501.000000pt" viewBox="0 0 501.000000 501.000000"
 preserveAspectRatio="xMidYMid meet">
<metadata>
Created by potrace 1.11, written by Peter Selinger 2001-2013
</metadata>
<g transform="translate(0.000000,501.000000) scale(0.100000,-0.100000)"
fill="#000000" stroke="none">
<path d="M2457 5004 c-1 -1 -54 -4 -117 -8 -63 -3 -124 -8 -135 -10 -11 -2
-45 -7 -75 -11 -30 -3 -71 -11 -90 -15 -19 -5 -53 -12 -75 -16 -54 -8 -253
-67 -339 -99 -95 -36 -265 -114 -298 -137 -16 -11 -28 -17 -28 -14 0 17 -319
-201 -415 -283 -163 -141 -368 -375 -474 -541 -30 -47 -64 -101 -77 -120 -28
-45 -135 -268 -162 -340 -11 -30 -27 -73 -35 -95 -13 -36 -53 -171 -62 -213
-57 -252 -73 -397 -70 -632 3 -187 15 -304 49 -475 48 -240 157 -530 269 -719
16 -28 39 -67 49 -86 73 -130 240 -335 392 -484 290 -283 690 -515 1056 -612
78 -20 182 -45 210 -49 19 -3 59 -10 88 -15 177 -31 585 -34 738 -6 11 2 39 7
64 11 85 14 95 16 175 36 296 73 548 184 810 358 38 25 79 53 90 63 11 9 55
44 97 78 300 239 568 601 726 981 53 128 117 335 136 444 38 211 49 315 50
500 0 98 -10 280 -18 320 -2 11 -7 40 -10 65 -37 269 -137 564 -280 825 -270
495 -715 893 -1240 1110 -144 59 -368 127 -471 141 -16 3 -41 7 -53 10 -13 3
-43 7 -65 10 -23 3 -53 7 -67 10 -35 6 -338 22 -343 18z"/>
</g>
</svg>
