<?xml version="1.0" standalone="no"?>
<!DOCTYPE svg PUBLIC "-//W3C//DTD SVG 20010904//EN"
 "http://www.w3.org/TR/2001/REC-SVG-20010904/DTD/svg10.dtd">
<svg version="1.0" xmlns="http://www.w3.org/2000/svg"
 width="700.000000pt" height="700.000000pt" viewBox="0 0 700.000000 700.000000"
 preserveAspectRatio="xMidYMid meet">
<metadata>
Created by potrace 1.14, written by Peter Selinger 2001-2017
</metadata>
<g transform="translate(0.000000,700.000000) scale(0.100000,-0.100000)"
fill="#000000" stroke="none">
<path d="M2310 6395 c-388 -65 -806 -307 -1161 -671 -139 -143 -216 -239 -322
-399 -179 -272 -289 -566 -304 -812 l-6 -93 1987 0 1986 0 0 -75 c0 -149 -29
-353 -75 -521 -74 -271 -191 -473 -389 -670 -154 -153 -248 -215 -573 -377
-138 -70 -300 -156 -360 -193 -324 -200 -547 -422 -663 -659 -72 -147 -91
-223 -97 -391 -6 -168 9 -261 66 -400 51 -123 118 -222 226 -330 317 -317 793
-432 1250 -299 319 93 605 327 730 599 65 141 80 212 79 391 0 130 -4 176 -22
248 -68 275 -239 460 -527 571 -50 19 -178 58 -285 86 -107 29 -217 64 -245
78 -90 48 -94 110 -12 170 104 74 233 125 807 322 637 219 866 310 1180 466
641 320 921 650 896 1054 -34 550 -467 1200 -1071 1605 -115 77 -364 202 -479
240 -111 37 -241 64 -346 72 l-90 6 -2 -931 -3 -932 -989 930 -989 930 -61 -1
c-34 -1 -95 -7 -136 -14z"/>
</g>
</svg>
