<?xml version="1.0" encoding="utf-8"?>
<!-- Generator: Adobe Illustrator 18.1.1, SVG Export Plug-In . SVG Version: 6.00 Build 0)  -->
<svg version="1.1" id="Layer_1" xmlns="http://www.w3.org/2000/svg" xmlns:xlink="http://www.w3.org/1999/xlink" x="0px" y="0px"
	 width="408.2" height="258" viewBox="0 0 408.2 258" enable-background="new 0 0 408.2 258" xml:space="preserve">
<g>
	<path d="M1.9,27l0.8-0.5c1.2-0.7,1.2-1.1,1.2-2.6V13.3c0-1-0.1-1.3-2.3-2.4V9l3.8-0.4l0.3,0.2v3.5l0.2,0c0.8-2.5,2.9-3.8,5-3.8
		c3.2,0,5.7,3.2,5.7,7c0,4.2-2.9,7.6-5.8,7.6c-2.3,0-4.1-1.3-4.7-3.2l-0.1,0c0,0.6,0,2.4,0.1,4.2c0.1,1.2,0,1.7,1.7,2.4l1,0.4
		l-0.1,1.5c-1.1,0-1.9-0.1-3.8-0.1c-1.5,0-2.1,0.1-2.9,0.1L1.9,27z M14.3,15.7c0-3-2-4.3-3.9-4.3c-2.6,0-4.3,2.3-4.3,4.6
		c0,2.5,2.1,4.4,4.6,4.4C13.1,20.4,14.3,18.6,14.3,15.7z"/>
	<path d="M28,20.2l-0.2,0C27,22,25,23,23.2,23c-2.4,0-4.2-1.7-4.2-4.2c0-2.5,1.9-4.3,6-4.3c1,0,1.8,0.1,2.6,0.3V14
		c0-1.9-1.4-2.6-3.4-2.6c-2.2,0-3.2,1-3.7,1.8l-1.3-1.1c0.8-2.2,3.2-3.5,5.6-3.5c2.7,0,5,1.8,5,5.5l-0.1,5.3c0,0.5,0.2,0.7,1.4,1.3
		l0.9,0.4l-0.1,1.6l-4.1,0.1C27.9,21.5,27.9,20.9,28,20.2z M23.8,20.3c1.8,0,3.8-1.1,3.8-2.7V17c-1-0.3-2.2-0.3-3.2-0.3
		c-1.8,0-3.1,0.5-3.1,1.8C21.3,19.7,22.4,20.3,23.8,20.3z M24.7,1.1c1.6,0,3,1.2,3,3c0,1.7-1.5,3-3,3c-1.6,0-3-1.2-3-3
		C21.7,2.3,23.2,1.1,24.7,1.1z M24.8,5.3c0.8,0,1.3-0.3,1.3-1.2c0-0.8-0.6-1.2-1.4-1.2c-0.8,0-1.3,0.3-1.3,1.2S24,5.3,24.8,5.3z"/>
	<path d="M45.4,16.3l-1.9,1.5v1.7c0,0.5,0.2,0.8,1.1,1.3l0.9,0.4l-0.1,1.5c-1,0-1.8-0.1-3.2-0.1c-1.6,0-2.2,0.1-3,0.1l-0.1-1.5
		l0.9-0.4c0.9-0.5,1.2-0.8,1.2-1.3c0.1-3,0.1-10.3-0.1-13.8c-0.1-0.7-0.3-1-2.8-1.9V2.1c1.4,0,3.7-0.1,5.1-0.4L43.8,2
		c-0.1,1.4-0.3,4.4-0.3,6.7v6.7l4.5-3.7v-0.3l-1.4-0.4V9c0.8,0,1.7,0,3,0c1.1,0,2.1,0,3.1,0l0.1,1.8c-0.7,0.4-1.8,1-2.8,1.7L47,15
		c1.8,2.3,5,4.9,6.5,5.9c-0.3,0.6-1.4,1.8-1.9,2.2C50,22.2,47.2,19.2,45.4,16.3z"/>
	<path d="M55.5,25.7c0.5,0.1,1.5,0.2,2.6,0.2c2,0,2.3-0.7,3-2.3l0.5-1.1h-1.3l-4-9.8c-0.4-1-0.8-1.2-1.1-1.4l-0.9-0.4L54.3,9
		c0.7,0,1.9,0,3.1,0c1,0,2.5,0,3.4,0v1.8l-0.9,0.4c-1.1,0.5-1.5,0.9-1.1,1.7l2.6,6.4h1.2c0.3-0.8,1.3-3.8,2.3-6.4
		c0.3-0.8,0-1.2-1.1-1.7l-0.9-0.4V9c0.9,0,2.5,0,3.5,0c1.2,0,2.1,0,2.7,0l0.1,1.8l-0.9,0.4c-0.3,0.2-0.8,0.4-1.1,1.4l-4,10.9
		c-1.7,4.6-4.1,5.2-5.8,5.2c-0.9,0-1.6-0.1-2.1-0.4L55.5,25.7z"/>
	<path d="M70.8,18.5l1.7,0.1c0.3,1.3,1.4,2.2,3.5,2.2c1.9,0,2.7-0.7,2.7-1.7c0-1.2-1.1-1.8-3.3-2.2c-2.9-0.5-4.6-1.6-4.6-4
		c0-2.9,2.4-4.2,4.7-4.2c1,0,2,0.3,2.9,0.8h0.1L80.1,9l0.4,0.3l-0.3,3.9l-1.7,0c-0.5-1.4-1.6-2-3.2-2c-1.9,0-2.4,0.8-2.4,1.7
		c0,0.8,0.5,1.5,3.1,1.9c3,0.6,4.8,1.7,4.8,4.2c0,2.7-2,4.2-4.9,4.2c-1.6,0-2.4-0.4-3.2-1h-0.1l-1.5,0.7l-0.7-0.3L70.8,18.5z"/>
	<path d="M88.1,23.1c-2.8,0-3.3-1.7-3.3-5.1c0-1.3,0.1-4.7,0.2-6.4l-2.2-0.1V9.2l1-0.1c1.1-0.2,1.5-0.5,1.7-2.3l0.3-2.2
		c0.5,0,1.3,0,1.9-0.1L87.3,9L91.2,9c0,0.6,0,2-0.1,2.6l-4-0.1C87,13.7,87,16,87,18.2c0,1.5,0.3,2.3,1.8,2.3c1,0,1.9-0.3,2.5-0.6
		l0.3,1.7C90.9,22.3,89.9,23.1,88.1,23.1z"/>
	<path d="M99.7,23.2c-3.7,0-6.3-2.7-6.3-7.2c0-4.4,2.8-7.4,6.4-7.4c3.5,0,6.3,3.1,5.3,8h-9.6c0.4,2.9,2.4,4,4.3,4
		c1.9,0,3.1-0.6,3.9-1.8l1.4,0.7C104.3,21.8,102.3,23.2,99.7,23.2z M95.6,14.5c2.6,0,5.2,0,7.6-0.1c-0.2-2.4-2-3.2-3.8-3.2
		C97.6,11.2,96.1,12.1,95.6,14.5z"/>
	<path d="M108,21.2l0.9-0.4c0.9-0.5,1.2-0.8,1.2-1.3c0.1-1.8,0-4.3,0-6.1c0-1-0.2-1.3-2.3-2.4V9l3.6-0.4l0.3,0.2v2.8l0.2,0.1
		c0.7-1.6,2.6-3.1,4.7-3.1c2.6,0,4.8,2,4.8,5.6c0,0.8-0.1,3.3-0.1,5.2c0,0.5,0.2,0.8,1.1,1.3l0.8,0.4l-0.1,1.6
		c-0.9,0-1.9-0.1-3.2-0.1c-1.4,0-2.3,0.1-3,0.1v-1.5l1-0.4c1.3-0.6,1.2-1.4,1.2-2.3c0-1.5,0.1-3.2,0-4c-0.2-2.5-1.7-2.9-3.1-2.9
		c-2.3,0-3.5,0.8-3.5,3.1c-0.1,1.9-0.1,2.7-0.1,3.8c0,0.9-0.2,1.6,1.1,2.3l0.9,0.4v1.5c-1,0-1.9-0.1-3.3-0.1c-1.5,0-2.2,0.1-2.9,0.1
		L108,21.2z"/>
	<path d="M131.2,21.2l0.9-0.4c0.9-0.5,1.2-0.8,1.2-1.3v-7.9l-2.6-0.2V9.2l2.4-0.2V8.6c0-4.7,2.9-7,6-7c1,0,2.1,0.2,2.6,0.3
		c-0.1,0.9-0.2,1.8-0.3,2.8c-0.7-0.1-2.3-0.3-3-0.3c-2.2,0-2.9,1.3-2.9,3.3V9l4.3-0.1c0,0.5,0,2-0.1,2.7l-4.3-0.1v6.8
		c0,1.3,0.3,1.8,1.6,2.2l1.7,0.6l-0.1,1.5c-1.1,0-2.4-0.1-4.3-0.1c-1.6,0-2.4,0.1-3.1,0.1L131.2,21.2z"/>
	<path d="M141.7,21.2l0.9-0.4c0.9-0.5,1.2-0.8,1.2-1.3c0.1-2.3,0.1-4.3,0.1-6.1c0-1-0.2-1.3-2.3-2.4V9l3.6-0.4l0.3,0.2l0.1,3.4
		l0.2,0c0.7-2.2,2.3-3.7,4.1-3.7c0.5,0,1,0.1,1.3,0.2c-0.1,1.1-0.2,2.2-0.4,3.2c-3.7-0.6-4.7,0.7-4.7,4.2v1.7c0,1.2,0,2.3,1.7,3
		l1,0.4l-0.1,1.5c-1.2,0-2.1-0.1-3.8-0.1c-1.5,0-2.2,0.1-3,0.1L141.7,21.2z"/>
	<path d="M152.8,22.7l-0.1-1.5l0.9-0.4c0.9-0.5,1.2-0.8,1.3-1.3c0.1-1.7,0.1-4.2,0-6.3c0-1-0.1-1.2-2.2-2.3V9l4.3-0.3l0.3,0.3
		c-0.2,2.3-0.3,8.4-0.3,10.4c0,0.5,0,0.8,1.1,1.3l0.9,0.4l-0.1,1.5c-1.3,0-1.8-0.1-3.2-0.1C154.2,22.6,153.6,22.7,152.8,22.7z
		 M153.9,3.7c0-1,0.9-1.9,2-1.9c1.2,0,2,0.9,2,1.9c0,1.1-0.7,1.9-2,1.9C154.8,5.6,153.9,4.8,153.9,3.7z"/>
	<path d="M161.9,18.5l1.7,0.1c0.3,1.3,1.4,2.2,3.5,2.2c1.9,0,2.7-0.7,2.7-1.7c0-1.2-1.1-1.8-3.3-2.2c-2.9-0.5-4.6-1.6-4.6-4
		c0-2.9,2.4-4.2,4.7-4.2c1,0,2,0.3,2.9,0.8h0.1l1.7-0.5l0.4,0.3l-0.3,3.9l-1.7,0c-0.5-1.4-1.6-2-3.2-2c-1.9,0-2.4,0.8-2.4,1.7
		c0,0.8,0.5,1.5,3.1,1.9c3,0.6,4.8,1.7,4.8,4.2c0,2.7-2,4.2-4.9,4.2c-1.6,0-2.4-0.4-3.2-1h-0.1l-1.5,0.7l-0.7-0.3L161.9,18.5z"/>
	<path d="M180.2,16.3l-1.9,1.5v1.7c0,0.5,0.2,0.8,1.1,1.3l0.9,0.4l-0.1,1.5c-1,0-1.8-0.1-3.2-0.1c-1.6,0-2.2,0.1-3,0.1l-0.1-1.5
		l0.9-0.4c0.9-0.5,1.2-0.8,1.2-1.3c0.1-3,0.1-10.3-0.1-13.8c-0.1-0.7-0.3-1-2.8-1.9V2.1c1.4,0,3.7-0.1,5.1-0.4l0.3,0.3
		c-0.1,1.4-0.3,4.4-0.3,6.7v6.7l4.5-3.7v-0.3l-1.4-0.4V9c0.8,0,1.7,0,3,0c1.1,0,2.1,0,3.1,0l0.1,1.8c-0.7,0.4-1.8,1-2.8,1.7l-3,2.5
		c1.8,2.3,5,4.9,6.5,5.9c-0.3,0.6-1.4,1.8-1.9,2.2C184.7,22.2,182,19.2,180.2,16.3z"/>
	<path d="M196.8,22.8c0.2-0.8,0.3-2.4,0.3-3.5c0-8,0-12.1-0.1-13.7c-0.1-0.7-0.2-1-2.5-1.9V2.1c1.4,0,3.4-0.2,4.8-0.4l0.3,0.3
		l-0.3,5.5c-0.1,2.3-0.1,2.8-0.3,4.7l0.2,0c0.7-2.1,2.7-3.7,4.9-3.7c2.9,0,5.6,3,5.6,7c0,4.3-3.1,7.6-6.2,7.6c-1.8,0-3-1.1-3.8-2.5
		h-0.2l-1.6,2.5L196.8,22.8z M207.4,15.7c0-3-1.8-4.3-3.8-4.3c-2.4,0-4.4,2-4.4,4.5c0,2.6,2,4.5,4.5,4.5
		C206.1,20.4,207.4,18.6,207.4,15.7z"/>
	<path d="M212.1,21.2l0.9-0.4c0.9-0.5,1.2-0.8,1.2-1.3c0.1-2.3,0.1-4.3,0.1-6.1c0-1-0.2-1.3-2.3-2.4V9l3.6-0.4l0.3,0.2l0.1,3.4
		l0.2,0c0.7-2.2,2.3-3.7,4.1-3.7c0.5,0,1,0.1,1.3,0.2c-0.1,1.1-0.2,2.2-0.4,3.2c-3.7-0.6-4.7,0.7-4.7,4.2v1.7c0,1.2,0,2.3,1.7,3
		l1,0.4l-0.1,1.5c-1.2,0-2.1-0.1-3.8-0.1c-1.5,0-2.2,0.1-3,0.1L212.1,21.2z"/>
	<path d="M223.2,22.7l-0.1-1.5l0.9-0.4c0.9-0.5,1.2-0.8,1.3-1.3c0.1-1.7,0.1-4.2,0-6.3c0-1-0.1-1.2-2.2-2.3V9l4.3-0.3l0.3,0.3
		c-0.2,2.3-0.3,8.4-0.3,10.4c0,0.5,0,0.8,1.1,1.3l0.9,0.4l-0.1,1.5c-1.3,0-1.8-0.1-3.2-0.1C224.5,22.6,224,22.7,223.2,22.7z
		 M224.3,3.7c0-1,0.9-1.9,2-1.9c1.2,0,2,0.9,2,1.9c0,1.1-0.7,1.9-2,1.9C225.2,5.6,224.3,4.8,224.3,3.7z"/>
	<path d="M232.3,18.5l1.7,0.1c0.3,1.3,1.4,2.2,3.5,2.2c1.9,0,2.7-0.7,2.7-1.7c0-1.2-1.1-1.8-3.3-2.2c-2.9-0.5-4.6-1.6-4.6-4
		c0-2.9,2.4-4.2,4.7-4.2c1,0,2,0.3,2.9,0.8h0.1l1.7-0.5l0.4,0.3l-0.3,3.9l-1.7,0c-0.5-1.4-1.6-2-3.2-2c-1.9,0-2.4,0.8-2.4,1.7
		c0,0.8,0.5,1.5,3.1,1.9c3,0.6,4.8,1.7,4.8,4.2c0,2.7-2,4.2-4.9,4.2c-1.6,0-2.4-0.4-3.2-1h-0.1l-1.5,0.7l-0.7-0.3L232.3,18.5z"/>
	<path d="M251,21.2l0.9-0.4c0.9-0.5,1.2-0.8,1.2-1.3v-7.9l-2.6-0.2V9.2L253,9V8.6c0-4.7,2.9-7,6-7c1,0,2.1,0.2,2.6,0.3
		c-0.1,0.9-0.2,1.8-0.3,2.8c-0.7-0.1-2.3-0.3-3-0.3c-2.2,0-2.9,1.3-2.9,3.3V9l4.3-0.1c0,0.5,0,2-0.1,2.7l-4.3-0.1v6.8
		c0,1.3,0.3,1.8,1.6,2.2l1.7,0.6l-0.1,1.5c-1.1,0-2.3-0.1-4.3-0.1c-1.6,0-2.4,0.1-3.1,0.1L251,21.2z"/>
	<path d="M261.5,21.2l0.9-0.4c0.9-0.5,1.2-0.8,1.2-1.3c0.1-2.3,0.1-4.3,0.1-6.1c0-1-0.2-1.3-2.3-2.4V9l3.6-0.4l0.3,0.2l0.1,3.4
		l0.2,0c0.7-2.2,2.3-3.7,4.1-3.7c0.5,0,1,0.1,1.3,0.2c-0.1,1.1-0.2,2.2-0.4,3.2c-3.7-0.6-4.7,0.7-4.7,4.2v1.7c0,1.2,0,2.3,1.7,3
		l1,0.4l-0.1,1.5c-1.2,0-2.1-0.1-3.8-0.1c-1.5,0-2.2,0.1-3,0.1L261.5,21.2z"/>
	<path d="M281.5,20.2l-0.2,0c-0.8,1.9-2.8,2.9-4.7,2.9c-2.4,0-4.2-1.7-4.2-4.2c0-2.5,1.9-4.3,6-4.3c1,0,1.8,0.1,2.6,0.3V14
		c0-1.9-1.4-2.6-3.4-2.6c-2.2,0-3.2,1-3.7,1.8l-1.3-1.1c0.8-2.2,3.2-3.5,5.6-3.5c2.7,0,5,1.8,5,5.5l-0.1,5.3c0,0.5,0.2,0.7,1.4,1.3
		l0.9,0.4l-0.1,1.6l-4.1,0.1C281.4,21.5,281.4,20.9,281.5,20.2z M277.3,20.3c1.8,0,3.8-1.1,3.8-2.7V17c-1-0.3-2.2-0.3-3.2-0.3
		c-1.8,0-3.1,0.5-3.1,1.8C274.8,19.7,275.9,20.3,277.3,20.3z"/>
	<path d="M293.2,21.2l0.9-0.4c0.9-0.5,1.2-0.8,1.2-1.3c0.1-1.8,0-4.3,0-6.1c0-1-0.2-1.3-2.3-2.4V9l3.6-0.4l0.3,0.2v2.8l0.2,0.1
		c0.7-1.6,2.6-3.1,4.7-3.1c2.6,0,4.8,2,4.8,5.6c0,0.8-0.1,3.3-0.1,5.2c0,0.5,0.2,0.8,1.1,1.3l0.8,0.4l-0.1,1.6
		c-0.9,0-1.9-0.1-3.2-0.1c-1.4,0-2.3,0.1-3,0.1v-1.5l1-0.4c1.3-0.6,1.2-1.4,1.2-2.3c0-1.5,0.1-3.2,0-4c-0.2-2.5-1.7-2.9-3.1-2.9
		c-2.3,0-3.5,0.8-3.5,3.1c-0.1,1.9-0.1,2.7-0.1,3.8c0,0.9-0.2,1.6,1.1,2.3l0.9,0.4v1.5c-1,0-1.9-0.1-3.3-0.1c-1.5,0-2.2,0.1-2.9,0.1
		L293.2,21.2z"/>
	<path d="M310.1,15.9c0-4.3,3-7.3,6.5-7.3c3.5,0,6.4,2.9,6.4,7.3c0,4.3-3,7.2-6.5,7.2C313.1,23.1,310.1,20.3,310.1,15.9z
		 M320.7,16.3c0-3.1-1.7-5-4.4-5c-2.7,0-3.8,1.7-3.8,4.2c0,3.1,1.8,5,4.4,5C319.6,20.5,320.7,18.8,320.7,16.3z"/>
	<path d="M325.4,21.2l0.9-0.4c0.9-0.5,1.2-0.8,1.2-1.3c0.1-2.3,0.1-4.3,0.1-6.1c0-1-0.2-1.3-2.3-2.4V9l3.6-0.4l0.3,0.2l0.1,3.4
		l0.2,0c0.7-2.2,2.3-3.7,4.1-3.7c0.5,0,1,0.1,1.3,0.2c-0.1,1.1-0.2,2.2-0.4,3.2c-3.7-0.6-4.7,0.7-4.7,4.2v1.7c0,1.2,0,2.3,1.7,3
		l1,0.4l-0.1,1.5c-1.2,0-2.1-0.1-3.8-0.1c-1.5,0-2.2,0.1-3,0.1L325.4,21.2z"/>
	<path d="M347,21.5c0-0.4,0.1-1.6,0.2-2.3l-0.2,0c-0.9,2.3-3.2,3.9-5.3,3.9c-2.9,0-5.5-3-5.5-7c0-4,2.5-7.6,6.1-7.6
		c1.9,0,3.4,0.8,4.3,2.6l0.1,0l-0.1-5.4c0-0.9-0.2-1.2-3.1-2.1V2.1c1.4,0,4-0.1,5.4-0.4l0.3,0.3c-0.1,3.7-0.3,7.8-0.3,10.6v6.5
		c0,0.6,0.2,0.8,1.3,1.4l0.8,0.5l-0.1,1.7c-0.7,0-1.5-0.1-2.3-0.1c-0.8,0-1.5,0.1-1.7,0.1V21.5z M342.4,11.4c-2.3,0-3.8,1.4-3.8,4.2
		c0,3.1,1.5,4.8,3.7,4.8c2.5,0,4.4-2,4.4-5C346.7,13,344.9,11.4,342.4,11.4z"/>
	<path d="M353.9,12.7c-0.4-1-0.8-1.2-1.1-1.4l-0.9-0.4L352,9c0.7,0,1.8,0,3,0c1,0,2.5,0,3.4,0v1.8l-0.9,0.4
		c-1.1,0.5-1.4,0.9-1.1,1.7c0.9,2.5,2.3,5.8,2.6,6.4h0.7c0.3-0.6,1.8-4,2.7-6.4c0.3-0.8,0-1.2-1.1-1.7l-0.9-0.4V9c0.9,0,2.4,0,3.5,0
		c1.2,0,2.1,0,2.7,0l0.1,1.8l-0.9,0.4c-0.3,0.2-0.7,0.4-1.1,1.4l-4.4,10h-2.3L353.9,12.7z"/>
	<path d="M374.5,23.2c-3.7,0-6.3-2.7-6.3-7.2c0-4.4,2.8-7.4,6.4-7.4c3.5,0,6.3,3.1,5.3,8h-9.6c0.4,2.9,2.4,4,4.3,4
		c1.9,0,3.1-0.6,3.9-1.8l1.4,0.7C379.1,21.8,377.2,23.2,374.5,23.2z M370.5,14.5c2.6,0,5.2,0,7.6-0.1c-0.2-2.4-2-3.2-3.8-3.2
		C372.5,11.2,370.9,12.1,370.5,14.5z"/>
	<path d="M383.2,18.5l1.7,0.1c0.3,1.3,1.4,2.2,3.5,2.2c1.9,0,2.7-0.7,2.7-1.7c0-1.2-1.1-1.8-3.3-2.2c-2.9-0.5-4.6-1.6-4.6-4
		c0-2.9,2.4-4.2,4.7-4.2c1,0,2,0.3,2.9,0.8h0.1l1.7-0.5l0.4,0.3l-0.3,3.9l-1.7,0c-0.5-1.4-1.6-2-3.2-2c-1.9,0-2.4,0.8-2.4,1.7
		c0,0.8,0.5,1.5,3.1,1.9c3,0.6,4.8,1.7,4.8,4.2c0,2.7-2,4.2-4.9,4.2c-1.6,0-2.4-0.4-3.2-1h-0.1l-1.5,0.7l-0.7-0.3L383.2,18.5z"/>
	<path d="M400.6,23.1c-2.8,0-3.3-1.7-3.3-5.1c0-1.3,0.1-4.7,0.2-6.4l-2.2-0.1V9.2l1-0.1c1.1-0.2,1.5-0.5,1.7-2.3l0.3-2.2
		c0.5,0,1.3,0,1.9-0.1L399.8,9l3.9-0.1c0,0.6,0,2-0.1,2.6l-4-0.1c-0.1,2.2-0.2,4.5-0.1,6.7c0,1.5,0.3,2.3,1.8,2.3
		c1,0,1.9-0.3,2.5-0.6l0.3,1.7C403.4,22.3,402.4,23.1,400.6,23.1z"/>
	<path d="M12.3,64.7c0,1.2,1.2,1.7,4.4,1.3l1.6-0.2l-0.7,6.7c-1.7,1.7-4.4,2.6-7.3,2.6c-5.1,0-8.3-3.2-6.5-10.7l2-8.2l-3.4-0.4
		l1.4-7.2c2.5-0.1,4.3-1.6,5.3-4.2l1.2-3l6.7-0.2l-1.7,7.4h5.3c-0.3,2.8-0.8,5.5-1.7,8.2L14,56.6C12.8,60.9,12.3,63.7,12.3,64.7z"/>
	<path d="M21.8,55.9l0.9-7.2c2.6,0,5.5-0.1,9.5-0.3l0.4,0.3l-1.5,5.6l0.2,0.1c1.6-3.8,3.7-6.4,7.2-6.4c1.5,0,2.9,0.5,3.8,1.1
		c-0.5,2.4-1.7,7.3-2.4,9.4c-0.8-0.2-2.5-0.5-3.7-0.4c-1.4,0.1-3.9,1.6-4.3,7.1l-0.6,9.4c-8.6,0.7-12.4-0.1-10-5.6l3.2-7.2l0.4-4.4
		L21.8,55.9z"/>
	<path d="M43.5,66.1l2.3-8.5l-3.1-1.6l0.9-7.2c2.6,0,8.2-0.1,12.3-0.3l0.4,0.3l-3.7,13.1c-0.3,1.3-0.6,2.4-0.6,2.9
		c0,1.3,0.7,1.7,2.9,1.4l1.2-0.2l-1.4,7c-1.5,1.4-3.5,2.2-5.9,2.2C44.4,75.2,41.9,71.9,43.5,66.1z M46.8,41.1c0-2.8,2.4-5,5.6-5
		c3.7,0,5.6,2.2,5.6,5c0,2.9-2,4.9-5.6,4.9C49.2,46.1,46.8,44,46.8,41.1z"/>
	<path d="M57.5,72.1c0-1.5,0.8-5.3,2-7.5c2.6,2.1,5.3,3.4,8.2,3.4c1.1,0,1.8-0.3,1.8-1.1c0-0.8-0.6-1.1-2.5-2.1
		c-5.9-2.9-6.7-5.5-6.8-7.8c-0.2-4.9,3-9.1,10.9-9.1c3.1,0,6.3,0.8,8,1.9c-0.2,2.6-1,6.2-2.4,8.3c-1.9-1.3-5.1-2.2-6.6-2.2
		c-1.3,0-1.9,0.5-1.9,1c-0.1,0.7,0.8,1,3.5,2.4c4.6,2.5,5.6,4.3,5.7,7.4c0.1,5.4-3.6,8.8-10.7,8.8C62.6,75.5,59.2,74.2,57.5,72.1z"
		/>
	<path d="M91.6,67.6l0.2-3.8c2.8-1.3,6.9-3.1,6.9-5.6c0-1.3-1.2-2.1-2.8-2c-2.6,0.2-5.3,1.9-5.9,8l-0.9,10.4
		c-8.3,0.7-12.1-0.2-9.7-5.6l3.2-7.1l2.5-16.2l-2.9-1.2l0.7-7.4c3.8,0,8.3-0.3,12-0.7l0.7,0.7c-1.4,7-3,11.5-5.1,16.3l0.2,0.1
		c1.9-3.3,4.9-5.6,9.1-5.6c3.5,0,7.1,2.2,7.1,7.2c0,3.8-2.4,7.2-6.7,9.2c2.1,1,4.8,1.9,6.4,2.4c-1,3.4-3.2,7.3-4.9,9
		C96.7,74.4,93.1,70.5,91.6,67.6z"/>
	<path d="M126.5,68.1l-0.3-0.2c-1.9,3.9-5.3,7.3-9.5,7.3c-4.3,0-8-3.1-8-10.5c0-8.4,5.5-16.6,13-16.6c2.4,0,4.6,1.2,5.6,3.3
		c1.1-1,1.5-1.9,2-2.9l7.3,0.2c-0.8,2.8-2.2,7.5-3.1,12.2l-0.7,3.7c-0.2,1.4,0.6,1.7,2.6,1.5l1.2-0.2l-1.5,7.6
		c-1.3,1.1-3.3,1.6-5,1.6C126.7,75.2,125.5,72.6,126.5,68.1z M121.1,56.2c-2.3,0-4.3,3.4-4.3,7.3c0,2.5,1.3,3.5,2.4,3.5
		c2.6,0,6.4-4.6,6.6-7.4C126,58,123.5,56.2,121.1,56.2z"/>
	<path d="M140,66.1l2.3-8.5l-3.1-1.6l0.9-7.2c2.6,0,8.2-0.1,12.3-0.3l0.4,0.3l-3.7,13.1c-0.3,1.3-0.6,2.4-0.6,2.9
		c0,1.3,0.7,1.7,2.9,1.4l1.2-0.2l-1.4,7c-1.5,1.4-3.5,2.2-5.9,2.2C141,75.2,138.5,71.9,140,66.1z M143.4,41.1c0-2.8,2.4-5,5.6-5
		c3.7,0,5.6,2.2,5.6,5c0,2.9-2,4.9-5.6,4.9C145.8,46.1,143.4,44,143.4,41.1z"/>
	<path d="M154.9,64.6c0-8.4,5.8-16.5,12.6-16.5c2.8,0,5.5,1.2,6.7,3.1l1.2-5.4c-1.1-0.3-2.1-0.6-3.3-1l0.7-7.7c4,0,8.8-0.3,12.6-0.7
		l0.7,0.7c-2.1,7.8-4,15.1-5.2,20.4c-0.8,3.6-1.2,6.2-1.3,7.1c-0.1,1.4,0.6,1.7,2.6,1.5l1.2-0.2l-1.5,7.6c-1.2,1.2-3.5,1.6-5,1.6
		c-3.4,0-4.7-2.6-3.7-7.1l-0.3-0.2c-1.9,3.8-5.3,7.3-9.8,7.3C158.5,75.2,154.9,71.9,154.9,64.6z M167.7,56.1c-2.8,0-4.8,3.4-4.8,6.7
		c0,2.9,1.4,4,3,4c2.6,0,6.4-4.7,6.7-7.4C172.8,57.9,169.9,56.1,167.7,56.1z"/>
	<path d="M184.9,65c-0.3-9.4,6.2-17,14.3-17c4.8,0,9.1,2.6,9.1,8.7c0,3.9-2.9,10.3-16,8.2c0.6,2.2,2.7,3.2,5.2,3.2
		c2.4,0,5.7-0.8,7.5-2.9l2.2,4.9c-2,3.4-6.1,5.5-11.3,5.5C189.9,75.5,185.2,72.2,184.9,65z M192.5,60.3c4.5,0.1,8.2-0.4,8.2-2.6
		c0-1.3-1.5-1.7-2.5-1.7C195.9,56,193.5,57.2,192.5,60.3z"/>
	<path d="M221.6,67.6l0.2-3.8c2.8-1.3,6.9-3.1,6.9-5.6c0-1.3-1.2-2.1-2.8-2c-2.6,0.2-5.3,1.9-5.9,8L219,74.7
		c-8.3,0.7-12.1-0.2-9.7-5.6l3.2-7.1l2.5-16.2l-2.9-1.2l0.7-7.4c3.8,0,8.3-0.3,12-0.7l0.7,0.7c-1.4,7-3,11.5-5.1,16.3l0.2,0.1
		c1.9-3.3,4.9-5.6,9.1-5.6c3.5,0,7.1,2.2,7.1,7.2c0,3.8-2.4,7.2-6.7,9.2c2.1,1,4.8,1.9,6.4,2.4c-1,3.4-3.2,7.3-5,9
		C226.7,74.4,223,70.5,221.6,67.6z"/>
	<path d="M256.4,68.1l-0.3-0.2c-1.9,3.9-5.3,7.3-9.5,7.3c-4.3,0-8-3.1-8-10.5c0-8.4,5.5-16.6,13-16.6c2.4,0,4.6,1.2,5.6,3.3
		c1.1-1,1.5-1.9,2-2.9l7.3,0.2c-0.8,2.8-2.2,7.5-3.1,12.2l-0.7,3.7c-0.2,1.4,0.6,1.7,2.6,1.5l1.2-0.2l-1.5,7.6
		c-1.3,1.1-3.3,1.6-5,1.6C256.7,75.2,255.4,72.6,256.4,68.1z M251,56.2c-2.3,0-4.3,3.4-4.3,7.3c0,2.5,1.3,3.5,2.4,3.5
		c2.6,0,6.4-4.6,6.6-7.4C255.9,58,253.4,56.2,251,56.2z"/>
	<path d="M266,84.6l4.4-16.5l1.9-10.6l-3.1-1.6l0.9-7.2c2.7,0,5.5-0.1,9.6-0.3l0.4,0.3l-1.7,6l0.2,0.1c2.2-3.9,5.4-6.7,9.6-6.7
		c4.5,0,8.5,3.9,8.5,10.6c0,9.6-6.5,16.6-12.6,16.6c-2.8,0-5.6-1.9-7-4l-0.8,12.9C273.9,85.1,269,84.9,266,84.6z M278.9,63.1
		c-0.2,2.4,2.8,4.4,5.3,4c2.7-0.4,4.2-3.3,4.2-6.4c0-2.5-1.2-4-2.9-4C282.6,56.6,279.2,60.7,278.9,63.1z"/>
	<path d="M313.6,66.8l1.4-3.7c1.7-4.3,0.7-6.1-1.7-6.1c-1.8,0-4.8,1.5-5.6,10.5l-0.6,7.2c-8.4,0.7-12.1-0.2-9.7-5.6l3.2-7.2
		l2.6-16.2l-2.9-1.2l0.7-7.4c3.8,0,8.3-0.3,12-0.7l0.7,0.7c-1.4,7.1-3.1,11.8-5.2,16.7l0.2,0.1c2.2-3.9,4.6-6,8.9-6
		c6.2,0,8.4,5.3,6.1,11.9l-1.3,3.7c-0.7,2.1-0.2,2.8,1.9,2.6l1.3-0.1l-1.4,7.1c-1.6,1.2-3.7,2.1-6.2,2.1
		C313.4,75.2,311.6,72.2,313.6,66.8z"/>
	<path d="M329.4,66.1l2.3-8.5l-3.1-1.6l0.9-7.2c2.6,0,8.2-0.1,12.3-0.3l0.5,0.3l-3.7,13.1c-0.3,1.3-0.6,2.4-0.6,2.9
		c0,1.3,0.7,1.7,2.9,1.4l1.2-0.2l-1.3,7c-1.5,1.4-3.5,2.2-5.9,2.2C330.4,75.2,327.9,71.9,329.4,66.1z M332.8,41.1c0-2.8,2.4-5,5.6-5
		c3.7,0,5.6,2.2,5.6,5c0,2.9-2,4.9-5.6,4.9C335.2,46.1,332.8,44,332.8,41.1z"/>
	<path d="M345,66.1l4.4-20.4l-2.9-1.2l0.7-7.4c3.8,0,8.3-0.3,12-0.7l0.7,0.7c-2.3,9.2-4.2,17.5-5.2,22.8c-0.5,2.4-0.8,4-0.9,4.7
		c-0.1,1.4,0.7,1.7,2.9,1.5l1.2-0.2l-1.3,7c-1.6,1.4-4,2.2-6.6,2.2C346,75.2,343.7,71.9,345,66.1z"/>
	<path d="M360.9,66.1l2.3-8.5l-3.1-1.6l0.9-7.2c2.6,0,8.2-0.1,12.3-0.3l0.5,0.3l-3.7,13.1c-0.3,1.3-0.6,2.4-0.6,2.9
		c0,1.3,0.7,1.7,2.9,1.4l1.2-0.2l-1.3,7c-1.5,1.4-3.5,2.2-5.9,2.2C361.9,75.2,359.4,71.9,360.9,66.1z M364.3,41.1c0-2.8,2.4-5,5.6-5
		c3.7,0,5.6,2.2,5.6,5c0,2.9-2,4.9-5.6,4.9C366.7,46.1,364.3,44,364.3,41.1z"/>
	<path d="M393.6,68.1l-0.3-0.2c-1.9,3.9-5.3,7.3-9.5,7.3c-4.3,0-8-3.1-8-10.5c0-8.4,5.5-16.6,13-16.6c2.4,0,4.6,1.2,5.6,3.3
		c1.1-1,1.5-1.9,2-2.9l7.3,0.2c-0.8,2.8-2.2,7.5-3.1,12.2l-0.7,3.7c-0.2,1.4,0.6,1.7,2.6,1.5l1.2-0.2l-1.5,7.6
		c-1.3,1.1-3.3,1.6-5,1.6C393.8,75.2,392.5,72.6,393.6,68.1z M388.2,56.2c-2.3,0-4.3,3.4-4.3,7.3c0,2.5,1.3,3.5,2.4,3.5
		c2.6,0,6.4-4.6,6.6-7.4C393.1,58,390.6,56.2,388.2,56.2z"/>
	<path d="M5.5,101.5l-0.8,0.9L1.5,99l3.1-3.4l0.8,0.9L3.4,99L5.5,101.5z M8.7,101.5l-0.8,0.9L4.8,99l3.1-3.4l0.8,0.9L6.6,99
		L8.7,101.5z"/>
	<path d="M13.6,98.5v-4.1c0-0.6-0.3-0.8-1-1.1L11.9,93l0.1-0.9c0.4,0,1.6,0,2.3,0c0.6,0,2.1,0,2.6,0V93l-0.7,0.2
		c-0.7,0.2-1.2,0.5-1.2,1.1v4.2c0,2.1,0.7,3.2,2.8,3.2c2.1,0,2.7-1.2,2.7-3.2v-4.2c0-0.6-0.5-0.9-1.2-1.1L18.5,93v-0.9
		c0.6,0,2,0,2.6,0c0.7,0,1.8,0,2.3,0l0.1,0.9l-0.7,0.3c-0.7,0.3-1,0.5-1,1.1v4c0,3-1.4,5.1-4.2,5.1C14.8,103.5,13.6,101.5,13.6,98.5
		z"/>
	<path d="M24.1,102.3l0.5-0.3c0.5-0.3,0.7-0.5,0.7-0.7c0-1,0-2.4,0-3.5c0-0.6-0.1-0.7-1.3-1.4v-1l2-0.2l0.2,0.1v1.6l0.1,0
		c0.4-0.9,1.5-1.8,2.7-1.8c1.5,0,2.7,1.1,2.7,3.2c0,0.5-0.1,1.9-0.1,3c0,0.3,0.1,0.5,0.6,0.7l0.5,0.2l-0.1,0.9
		c-0.5,0-1.1-0.1-1.8-0.1c-0.8,0-1.3,0.1-1.7,0.1v-0.9l0.5-0.3c0.7-0.3,0.7-0.8,0.7-1.3c0-0.9,0-1.8,0-2.3c-0.1-1.4-1-1.6-1.8-1.6
		c-1.3,0-2,0.5-2,1.8c0,1.1-0.1,1.5,0,2.2c0,0.5-0.1,0.9,0.6,1.3l0.5,0.3v0.9c-0.6,0-1.1-0.1-1.9-0.1c-0.9,0-1.2,0.1-1.7,0.1
		L24.1,102.3z"/>
	<path d="M37.3,103.5c-2.1,0-3.6-1.5-3.6-4.1c0-2.5,1.6-4.2,3.7-4.2c2,0,3.5,1.8,3,4.5H35c0.2,1.6,1.4,2.3,2.4,2.3
		c1.1,0,1.8-0.3,2.2-1l0.8,0.4C39.9,102.7,38.8,103.5,37.3,103.5z M35,98.5c1.5,0,3,0,4.3,0c-0.1-1.4-1.1-1.8-2.1-1.8
		C36.1,96.7,35.3,97.2,35,98.5z"/>
	<path d="M49,103.5c-2.1,0-3.6-1.5-3.6-4.1c0-2.5,1.6-4.2,3.7-4.2c2,0,3.5,1.8,3,4.5h-5.4c0.2,1.6,1.4,2.3,2.4,2.3
		c1.1,0,1.8-0.3,2.2-1l0.8,0.4C51.6,102.7,50.6,103.5,49,103.5z M46.7,98.5c1.5,0,3,0,4.3,0c-0.1-1.4-1.1-1.8-2.1-1.8
		C47.9,96.7,47,97.2,46.7,98.5z"/>
	<path d="M53.7,102.3l0.5-0.3c0.5-0.3,0.7-0.5,0.7-0.7c0.1-1.3,0-2.4,0-3.5c0-0.6-0.1-0.7-1.3-1.4v-1l2-0.2l0.2,0.1l0.1,1.9l0.1,0
		c0.4-1.3,1.3-2.1,2.3-2.1c0.3,0,0.6,0.1,0.7,0.1c-0.1,0.6-0.1,1.2-0.2,1.8c-2.1-0.4-2.7,0.4-2.7,2.4v1c0,0.7,0,1.3,1,1.7l0.6,0.2
		l-0.1,0.9c-0.7,0-1.2-0.1-2.2-0.1c-0.8,0-1.2,0.1-1.7,0.1L53.7,102.3z"/>
	<path d="M60,102.3l0.5-0.3c0.5-0.3,0.7-0.5,0.7-0.7c0.1-1.3,0-2.4,0-3.5c0-0.6-0.1-0.7-1.3-1.4v-1l2-0.2l0.2,0.1l0.1,1.9l0.1,0
		c0.4-1.3,1.3-2.1,2.3-2.1c0.3,0,0.6,0.1,0.7,0.1c-0.1,0.6-0.1,1.2-0.2,1.8c-2.1-0.4-2.7,0.4-2.7,2.4v1c0,0.7,0,1.3,1,1.7l0.6,0.2
		l-0.1,0.9c-0.7,0-1.2-0.1-2.2-0.1c-0.8,0-1.2,0.1-1.7,0.1L60,102.3z"/>
	<path d="M69.8,103.5c-2.1,0-3.6-1.5-3.6-4.1c0-2.5,1.6-4.2,3.7-4.2c2,0,3.5,1.8,3,4.5h-5.4c0.2,1.6,1.4,2.3,2.4,2.3
		c1.1,0,1.8-0.3,2.2-1l0.8,0.4C72.4,102.7,71.3,103.5,69.8,103.5z M67.5,98.5c1.5,0,3,0,4.3,0c-0.1-1.4-1.1-1.8-2.1-1.8
		C68.6,96.7,67.7,97.2,67.5,98.5z"/>
	<path d="M80.5,103.3c0-0.6,0-1.3,0.1-1.7l-0.1,0c-0.3,0.9-1.5,1.9-2.6,1.9c-1.5,0-2.5-1.1-2.5-2.9c0-1.4,0-1.8,0-2.8
		c0-0.6-0.1-0.7-1.3-1.2v-1l2.5-0.1l0.2,0.1c-0.1,1.3-0.2,3-0.1,4.8c0.1,1.1,0.6,1.5,1.5,1.5c1.2,0,2-0.5,2.1-1.9
		c0.1-0.6,0-1.1,0-2.2c0-0.6-0.2-0.8-1.5-1.2v-1l2.6-0.1l0.2,0.1c-0.1,1.3,0,4.4,0,5.7c0,0.4,0.1,0.5,0.7,0.9l0.5,0.3l-0.1,0.9
		L80.5,103.3z"/>
	<path d="M83.7,102.3l0.5-0.3c0.5-0.3,0.7-0.5,0.7-0.7c0.1-1.3,0-2.4,0-3.5c0-0.6-0.1-0.7-1.3-1.4v-1l2-0.2l0.2,0.1l0.1,1.9l0.1,0
		c0.4-1.3,1.3-2.1,2.3-2.1c0.3,0,0.6,0.1,0.7,0.1c-0.1,0.6-0.1,1.2-0.2,1.8c-2.1-0.4-2.7,0.4-2.7,2.4v1c0,0.7,0,1.3,1,1.7l0.6,0.2
		l-0.1,0.9c-0.7,0-1.2-0.1-2.2-0.1c-0.8,0-1.2,0.1-1.7,0.1L83.7,102.3z"/>
	<path d="M93.4,99.3c0-2.4,1.7-4.1,3.7-4.1c2,0,3.6,1.7,3.6,4.1c0,2.4-1.7,4.1-3.7,4.1C95.1,103.4,93.4,101.8,93.4,99.3z M99.4,99.6
		c0-1.8-1-2.9-2.5-2.9c-1.5,0-2.2,1-2.2,2.4c0,1.8,1,2.8,2.5,2.8C98.8,101.9,99.4,101,99.4,99.6z"/>
	<path d="M102,102.3l0.5-0.3c0.5-0.3,0.7-0.5,0.7-0.7c0.1-1.3,0-2.4,0-3.5c0-0.6-0.1-0.7-1.3-1.4v-1l2-0.2l0.2,0.1l0.1,1.9l0.1,0
		c0.4-1.3,1.3-2.1,2.3-2.1c0.3,0,0.6,0.1,0.7,0.1c-0.1,0.6-0.1,1.2-0.2,1.8c-2.1-0.4-2.7,0.4-2.7,2.4v1c0,0.7,0,1.3,1,1.7l0.6,0.2
		l-0.1,0.9c-0.7,0-1.2-0.1-2.2-0.1c-0.8,0-1.2,0.1-1.7,0.1L102,102.3z"/>
	<path d="M108.3,103.2l-0.1-0.9l0.5-0.3c0.5-0.3,0.7-0.5,0.7-0.7c0-1,0-2.4,0-3.5c0-0.6,0-0.7-1.2-1.3v-1l2.4-0.2l0.2,0.2
		c-0.1,1.3-0.2,4.8-0.1,5.9c0,0.3,0,0.4,0.6,0.7l0.5,0.3l-0.1,0.9c-0.7,0-1-0.1-1.8-0.1C109.1,103.1,108.8,103.2,108.3,103.2z
		 M109,92.4c0-0.6,0.5-1.1,1.1-1.1c0.7,0,1.1,0.5,1.1,1.1c0,0.6-0.4,1.1-1.1,1.1C109.4,93.5,109,93,109,92.4z"/>
	<path d="M116.3,107c-1.9,0-3.5-0.9-3.5-2.2c0-0.8,0.6-1.6,1.5-2c-0.3-0.2-0.5-0.5-0.5-0.8c0-0.4,0.3-0.9,0.9-1.4
		c-0.9-0.5-1.4-1.4-1.4-2.4c0-1.4,1.3-3,3.3-3c1.1,0,1.7,0.2,3.5-0.1c0,0.4,0,1,0,1.5l-1.6-0.1c0.8,0.5,0.9,1.2,0.9,1.8
		c0,1.3-1.1,2.6-2.9,2.6c-0.6,0-0.8,0-0.9-0.1c-0.6,0.6-0.6,1.1,0.2,1.1l1.9,0.1c1.5,0,2.4,0.8,2.4,2.1
		C120.3,106.1,118.3,107,116.3,107z M119,104.5c0-0.6-0.5-1-1.5-1l-1.6-0.1c-1-0.1-1.7,0.6-1.7,1.2c0,0.7,0.8,1.2,2.3,1.2
		C117.8,105.8,119,105.4,119,104.5z M118.2,98.4c0-0.5-0.2-1-0.5-1.3c-0.3-0.3-0.8-0.5-1.4-0.5c-1.1,0-1.7,0.6-1.7,1.5
		c0,1.2,1,1.6,1.9,1.6C117.4,99.8,118.2,99.3,118.2,98.4z"/>
	<path d="M121.5,103.2l-0.1-0.9l0.5-0.3c0.5-0.3,0.7-0.5,0.7-0.7c0-1,0-2.4,0-3.5c0-0.6,0-0.7-1.2-1.3v-1l2.4-0.2l0.2,0.2
		c-0.1,1.3-0.2,4.8-0.1,5.9c0,0.3,0,0.4,0.6,0.7l0.5,0.3l-0.1,0.9c-0.7,0-1-0.1-1.8-0.1C122.2,103.1,121.9,103.2,121.5,103.2z
		 M122.1,92.4c0-0.6,0.5-1.1,1.1-1.1c0.7,0,1.1,0.5,1.1,1.1c0,0.6-0.4,1.1-1.1,1.1C122.6,93.5,122.1,93,122.1,92.4z"/>
	<path d="M126.3,102.3l0.5-0.3c0.5-0.3,0.7-0.5,0.7-0.7c0-1,0-2.4,0-3.5c0-0.6-0.1-0.7-1.3-1.4v-1l2-0.2l0.2,0.1v1.6l0.1,0
		c0.4-0.9,1.5-1.8,2.7-1.8c1.5,0,2.7,1.1,2.7,3.2c0,0.5-0.1,1.9-0.1,3c0,0.3,0.1,0.5,0.6,0.7l0.5,0.2l-0.1,0.9
		c-0.5,0-1.1-0.1-1.8-0.1c-0.8,0-1.3,0.1-1.7,0.1v-0.9l0.5-0.3c0.7-0.3,0.7-0.8,0.7-1.3c0-0.9,0-1.8,0-2.3c-0.1-1.4-1-1.6-1.8-1.6
		c-1.3,0-2,0.5-2,1.8c0,1.1-0.1,1.5,0,2.2c0,0.5-0.1,0.9,0.6,1.3l0.5,0.3v0.9c-0.6,0-1.1-0.1-1.9-0.1c-0.9,0-1.2,0.1-1.7,0.1
		L126.3,102.3z"/>
	<path d="M141.1,101.8L141.1,101.8c-0.5,1-1.7,1.6-2.7,1.6c-1.4,0-2.4-1-2.4-2.4c0-1.4,1.1-2.4,3.4-2.4c0.6,0,1,0.1,1.5,0.1v-0.5
		c0-1.1-0.8-1.5-1.9-1.5c-1.3,0-1.8,0.6-2.1,1l-0.7-0.6c0.5-1.2,1.8-2,3.2-2c1.5,0,2.9,1,2.8,3.1l0,3c0,0.3,0.1,0.4,0.8,0.7l0.5,0.3
		l-0.1,0.9l-2.3,0.1C141,102.5,141,102.2,141.1,101.8z M138.7,101.9c1,0,2.2-0.6,2.2-1.5V100c-0.6-0.2-1.2-0.2-1.8-0.2
		c-1,0-1.8,0.3-1.8,1C137.3,101.5,137.9,101.9,138.7,101.9z"/>
	<path d="M144,102.3l0.5-0.3c0.5-0.3,0.7-0.5,0.7-0.7c0-1.4,0.1-5.7,0-7.9c0-0.4-0.2-0.6-1.6-1v-0.9c0.8,0,2.1-0.1,2.9-0.2l0.2,0.2
		c0,0.8-0.2,2.5-0.2,5.4v4.4c0,0.3,0.1,0.5,0.6,0.7l0.5,0.3l-0.1,0.9c-0.6,0-1-0.1-1.8-0.1c-0.8,0-1.2,0.1-1.7,0.1L144,102.3z"/>
	<path d="M152.3,103.5c-2.1,0-3.6-1.5-3.6-4.1c0-2.5,1.6-4.2,3.7-4.2c2,0,3.5,1.8,3,4.5H150c0.2,1.6,1.4,2.3,2.4,2.3
		c1.1,0,1.8-0.3,2.2-1l0.8,0.4C154.9,102.7,153.8,103.5,152.3,103.5z M150,98.5c1.5,0,3,0,4.3,0c-0.1-1.4-1.1-1.8-2.1-1.8
		C151.1,96.7,150.2,97.2,150,98.5z"/>
	<path d="M161,97.5c-0.2-0.6-0.5-0.7-0.6-0.8l-0.5-0.3l0.1-1c0.4,0,1,0,1.7,0c0.6,0,1.4,0,1.9,0v1l-0.5,0.2c-0.6,0.3-0.8,0.5-0.6,1
		c0.5,1.4,1.3,3.3,1.5,3.7h0.4c0.2-0.4,1-2.3,1.5-3.7c0.2-0.5,0-0.7-0.6-1l-0.5-0.2v-1c0.5,0,1.4,0,2,0c0.7,0,1.2,0,1.5,0l0.1,1
		l-0.5,0.3c-0.2,0.1-0.4,0.2-0.6,0.8l-2.5,5.7h-1.3L161,97.5z"/>
	<path d="M174,101.8L174,101.8c-0.5,1-1.7,1.6-2.7,1.6c-1.4,0-2.4-1-2.4-2.4c0-1.4,1.1-2.4,3.4-2.4c0.6,0,1,0.1,1.5,0.1v-0.5
		c0-1.1-0.8-1.5-1.9-1.5c-1.3,0-1.8,0.6-2.1,1l-0.7-0.6c0.5-1.2,1.8-2,3.2-2c1.5,0,2.9,1,2.8,3.1l0,3c0,0.3,0.1,0.4,0.8,0.7l0.5,0.3
		l-0.1,0.9l-2.3,0.1C174,102.5,174,102.2,174,101.8z M171.7,101.9c1,0,2.2-0.6,2.2-1.5V100c-0.6-0.2-1.2-0.2-1.8-0.2
		c-1,0-1.8,0.3-1.8,1C170.2,101.5,170.9,101.9,171.7,101.9z"/>
	<path d="M183.2,103.3c0-0.6,0-1.3,0.1-1.7l-0.1,0c-0.3,0.9-1.5,1.9-2.6,1.9c-1.5,0-2.5-1.1-2.5-2.9c0-1.4,0-1.8,0-2.8
		c0-0.6-0.1-0.7-1.3-1.2v-1l2.5-0.1l0.2,0.1c-0.1,1.3-0.2,3-0.1,4.8c0.1,1.1,0.6,1.5,1.5,1.5c1.2,0,2-0.5,2.1-1.9
		c0.1-0.6,0-1.1,0-2.2c0-0.6-0.2-0.8-1.5-1.2v-1l2.6-0.1l0.2,0.1c-0.1,1.3,0,4.4,0,5.7c0,0.4,0.1,0.5,0.7,0.9l0.5,0.3l-0.1,0.9
		L183.2,103.3z"/>
	<path d="M189.2,103.4c-1.6,0-1.9-1-1.9-2.9c0-0.7,0.1-2.6,0.1-3.7l-1.3,0v-1.3l0.5-0.1c0.6-0.1,0.8-0.3,1-1.3l0.2-1.3
		c0.3,0,0.7,0,1.1-0.1l-0.1,2.6l2.2,0c0,0.3,0,1.1,0,1.5l-2.3-0.1c-0.1,1.3-0.1,2.6-0.1,3.8c0,0.9,0.2,1.3,1,1.3
		c0.6,0,1.1-0.2,1.4-0.4l0.1,1C190.8,103,190.2,103.4,189.2,103.4z"/>
	<path d="M195.7,102.3l0.5-0.3c0.5-0.3,0.6-0.5,0.7-0.7c0-1,0-2.3,0-3.5c0-0.6-0.1-0.7-1.3-1.4v-1l2-0.2l0.2,0.1v1.6l0.1,0
		c0.4-0.9,1.4-1.8,2.6-1.8c1.2,0,2.1,0.7,2.3,2h0.1c0.4-1.1,1.5-2,2.7-2c1.4,0,2.6,1.1,2.6,3.2c0,0.5,0,1.9-0.1,3
		c0,0.3,0.1,0.5,0.6,0.7l0.5,0.2l-0.1,0.9c-0.5,0-1.2-0.1-1.8-0.1c-0.7,0-1.3,0.1-1.7,0.1v-0.9l0.5-0.3c0.7-0.3,0.7-1,0.7-1.6
		c0-0.8,0-1.5,0-2c-0.1-1.4-0.9-1.6-1.7-1.6c-1.3,0-1.9,0.4-2,1.7l-0.1,1.8c0,0.6-0.1,1.3,0.6,1.6l0.5,0.3v0.9
		c-0.6,0-1.3-0.1-1.9-0.1c-0.7,0-1.3,0.1-1.7,0.1v-0.9l0.5-0.3c0.7-0.4,0.7-1,0.7-1.6c0-0.7,0-1.5,0-1.9c-0.1-1.4-0.9-1.7-1.8-1.7
		c-1.2,0-1.9,0.5-1.9,1.7c0,1-0.1,1.2,0,1.8c0,0.6-0.1,1.3,0.6,1.6l0.5,0.3v0.9c-0.6,0-1.3-0.1-1.9-0.1c-0.7,0-1.2,0.1-1.7,0.1
		L195.7,102.3z"/>
	<path d="M210.3,103.2l-0.1-0.9l0.5-0.3c0.5-0.3,0.7-0.5,0.7-0.7c0-1,0-2.4,0-3.5c0-0.6,0-0.7-1.2-1.3v-1l2.4-0.2l0.2,0.2
		c-0.1,1.3-0.2,4.8-0.1,5.9c0,0.3,0,0.4,0.6,0.7l0.5,0.3l-0.1,0.9c-0.7,0-1-0.1-1.8-0.1C211.1,103.1,210.7,103.2,210.3,103.2z
		 M210.9,92.4c0-0.6,0.5-1.1,1.1-1.1c0.7,0,1.1,0.5,1.1,1.1c0,0.6-0.4,1.1-1.1,1.1C211.4,93.5,210.9,93,210.9,92.4z"/>
	<path d="M218.7,103.5c-2.1,0-3.6-1.5-3.6-4.1c0-2.5,1.6-4.2,3.7-4.2c2,0,3.5,1.8,3,4.5h-5.4c0.2,1.6,1.4,2.3,2.4,2.3
		c1.1,0,1.8-0.3,2.2-1l0.8,0.4C221.3,102.7,220.2,103.5,218.7,103.5z M216.4,98.5c1.5,0,3,0,4.3,0c-0.1-1.4-1.1-1.8-2.1-1.8
		C217.5,96.7,216.7,97.2,216.4,98.5z"/>
	<path d="M229.4,103.3c0-0.6,0-1.3,0.1-1.7l-0.1,0c-0.3,0.9-1.5,1.9-2.6,1.9c-1.5,0-2.5-1.1-2.5-2.9c0-1.4,0-1.8,0-2.8
		c0-0.6-0.1-0.7-1.3-1.2v-1l2.5-0.1l0.2,0.1c-0.1,1.3-0.2,3-0.1,4.8c0.1,1.1,0.6,1.5,1.5,1.5c1.2,0,2-0.5,2.1-1.9
		c0.1-0.6,0-1.1,0-2.2c0-0.6-0.2-0.8-1.5-1.2v-1l2.6-0.1l0.2,0.1c-0.1,1.3,0,4.4,0,5.7c0,0.4,0.1,0.5,0.7,0.9l0.5,0.3l-0.1,0.9
		L229.4,103.3z"/>
	<path d="M232.2,102.3l0.5-0.2c0.7-0.3,0.7-0.3,1.2-0.9l1.7-2l-1.6-1.8c-0.5-0.6-0.6-0.7-1.1-0.8l-0.5-0.1l0.1-1c0.6,0,1.1,0,1.7,0
		c0.8,0,1.3,0,1.7,0v1l-0.3,0.1c-0.5,0.1-0.5,0.3-0.1,0.8l0.8,1.1h0.2l0.9-1.1c0.4-0.5,0.4-0.7-0.1-0.8l-0.3-0.1v-1
		c0.4,0,0.8,0,1.5,0c0.6,0,1.2,0,1.7,0l0,1l-0.4,0.1c-0.6,0.1-0.6,0.3-1.1,0.8l-1.6,1.9l1.9,2c0.5,0.5,0.6,0.6,1.2,0.9l0.4,0.2
		l-0.1,0.9c-0.6,0-1.2,0-1.8,0c-0.8,0-1.4,0-1.8,0v-0.9l0.3-0.1c0.5-0.2,0.6-0.3,0.3-0.7l-1.2-1.4h-0.2l-1.1,1.4
		c-0.3,0.4-0.3,0.5,0.3,0.7l0.4,0.1v0.9c-0.4,0-0.9,0-1.7,0c-0.6,0-1.2,0-1.8,0L232.2,102.3z"/>
	<path d="M249.4,105.6l0.5-0.2c0.5-0.2,0.8-0.5,0.8-0.9c0.1-1.5,0.1-2.3,0.1-3l-0.1,0c-0.4,1.1-1.5,2-2.7,2c-1.7,0-3.2-1.7-3.2-4
		c0-2.2,1.4-4.2,3.5-4.2c1,0,1.9,0.5,2.3,1.3l0.1,0l0.8-1.3l0.8,0.1c-0.1,0.5-0.2,1.6-0.2,2.4c0,3,0,6.4,0,6.8c0,0.3,0,0.4,0.6,0.7
		l0.5,0.3l-0.1,0.9c-0.6,0-1-0.1-1.8-0.1c-0.9,0-1.4,0.1-1.8,0.1L249.4,105.6z M248.4,96.8c-1.3,0-2.2,0.8-2.2,2.4
		c0,1.7,0.9,2.6,2.1,2.6c1.4,0,2.5-1.2,2.5-2.7C250.8,97.7,249.8,96.8,248.4,96.8z"/>
	<path d="M260.1,103.3c0-0.6,0-1.3,0.1-1.7l-0.1,0c-0.3,0.9-1.5,1.9-2.6,1.9c-1.5,0-2.5-1.1-2.5-2.9c0-1.4,0-1.8,0-2.8
		c0-0.6-0.1-0.7-1.3-1.2v-1l2.5-0.1l0.2,0.1c-0.1,1.3-0.2,3-0.1,4.8c0.1,1.1,0.6,1.5,1.5,1.5c1.2,0,2-0.5,2.1-1.9
		c0.1-0.6,0-1.1,0-2.2c0-0.6-0.2-0.8-1.5-1.2v-1l2.6-0.1l0.2,0.1c-0.1,1.3,0,4.4,0,5.7c0,0.4,0.1,0.5,0.7,0.9l0.5,0.3l-0.1,0.9
		L260.1,103.3z"/>
	<path d="M262.9,92c0-0.6,0.4-1.1,1.2-1.1c1,0,1.4,0.8,1.4,1.8c0,1.4-0.8,2.4-1.8,3l-0.7-1.1c0.8-0.4,1.5-1,1.3-1.6
		C263.6,93.1,262.9,92.8,262.9,92z"/>
	<path d="M273,103.3c0-0.6,0-1.3,0.1-1.7l-0.1,0c-0.3,0.9-1.5,1.9-2.6,1.9c-1.5,0-2.5-1.1-2.5-2.9c0-1.4,0-1.8,0-2.8
		c0-0.6-0.1-0.7-1.3-1.2v-1l2.5-0.1l0.2,0.1c-0.1,1.3-0.2,3-0.1,4.8c0.1,1.1,0.6,1.5,1.5,1.5c1.2,0,2-0.5,2.1-1.9
		c0.1-0.6,0-1.1,0-2.2c0-0.6-0.2-0.8-1.5-1.2v-1l2.6-0.1l0.2,0.1c-0.1,1.3,0,4.4,0,5.7c0,0.4,0.1,0.5,0.7,0.9l0.5,0.3l-0.1,0.9
		L273,103.3z"/>
	<path d="M276.3,102.3l0.5-0.3c0.5-0.3,0.7-0.5,0.7-0.7c0-1,0-2.4,0-3.5c0-0.6-0.1-0.7-1.3-1.4v-1l2-0.2l0.2,0.1v1.6l0.1,0
		c0.4-0.9,1.5-1.8,2.7-1.8c1.5,0,2.7,1.1,2.7,3.2c0,0.5-0.1,1.9-0.1,3c0,0.3,0.1,0.5,0.6,0.7l0.5,0.2l-0.1,0.9
		c-0.5,0-1.1-0.1-1.8-0.1c-0.8,0-1.3,0.1-1.7,0.1v-0.9l0.5-0.3c0.7-0.3,0.7-0.8,0.7-1.3c0-0.9,0-1.8,0-2.3c-0.1-1.4-1-1.6-1.8-1.6
		c-1.3,0-2,0.5-2,1.8c0,1.1-0.1,1.5,0,2.2c0,0.5-0.1,0.9,0.6,1.3l0.5,0.3v0.9c-0.6,0-1.1-0.1-1.9-0.1c-0.9,0-1.2,0.1-1.7,0.1
		L276.3,102.3z"/>
	<path d="M289.6,103.5c-2.1,0-3.6-1.5-3.6-4.1c0-2.5,1.6-4.2,3.7-4.2c2,0,3.5,1.8,3,4.5h-5.4c0.2,1.6,1.4,2.3,2.4,2.3
		c1.1,0,1.8-0.3,2.2-1l0.8,0.4C292.1,102.7,291.1,103.5,289.6,103.5z M287.2,98.5c1.5,0,3,0,4.3,0c-0.1-1.4-1.1-1.8-2.1-1.8
		C288.4,96.7,287.5,97.2,287.2,98.5z"/>
	<path d="M298.3,97.5c-0.2-0.6-0.5-0.7-0.6-0.8l-0.5-0.3l0.1-1c0.4,0,1,0,1.7,0c0.6,0,1.4,0,1.9,0v1l-0.5,0.2
		c-0.6,0.3-0.8,0.5-0.6,1c0.5,1.4,1.3,3.3,1.5,3.7h0.4c0.2-0.4,1-2.3,1.5-3.7c0.2-0.5,0-0.7-0.6-1l-0.5-0.2v-1c0.5,0,1.4,0,2,0
		c0.7,0,1.2,0,1.5,0l0.1,1l-0.5,0.3c-0.2,0.1-0.4,0.2-0.6,0.8l-2.5,5.7h-1.3L298.3,97.5z"/>
	<path d="M310,103.5c-2.1,0-3.6-1.5-3.6-4.1c0-2.5,1.6-4.2,3.7-4.2c2,0,3.5,1.8,3,4.5h-5.4c0.2,1.6,1.4,2.3,2.4,2.3
		c1.1,0,1.8-0.3,2.2-1l0.8,0.4C312.6,102.7,311.5,103.5,310,103.5z M307.7,98.5c1.5,0,3,0,4.3,0c-0.1-1.4-1.1-1.8-2.1-1.8
		C308.8,96.7,307.9,97.2,307.7,98.5z M308.8,93.8c0.8-0.9,1.5-1.8,2.1-2.7c0.4,0.2,1,0.8,1.2,1.2c-0.9,0.7-1.8,1.4-2.8,2.1
		L308.8,93.8z"/>
	<path d="M314.6,102.3l0.5-0.3c0.5-0.3,0.7-0.5,0.7-0.7c0.1-1.3,0-2.4,0-3.5c0-0.6-0.1-0.7-1.3-1.4v-1l2-0.2l0.2,0.1l0.1,1.9l0.1,0
		c0.4-1.3,1.3-2.1,2.3-2.1c0.3,0,0.6,0.1,0.7,0.1c-0.1,0.6-0.1,1.2-0.2,1.8c-2.1-0.4-2.7,0.4-2.7,2.4v1c0,0.7,0,1.3,1,1.7l0.6,0.2
		l-0.1,0.9c-0.7,0-1.2-0.1-2.2-0.1c-0.8,0-1.2,0.1-1.7,0.1L314.6,102.3z"/>
	<path d="M321,103.2l-0.1-0.9l0.5-0.3c0.5-0.3,0.7-0.5,0.7-0.7c0-1,0-2.4,0-3.5c0-0.6,0-0.7-1.2-1.3v-1l2.4-0.2l0.2,0.2
		c-0.1,1.3-0.2,4.8-0.1,5.9c0,0.3,0,0.4,0.6,0.7l0.5,0.3l-0.1,0.9c-0.7,0-1-0.1-1.8-0.1C321.7,103.1,321.4,103.2,321,103.2z
		 M321.6,92.4c0-0.6,0.5-1.1,1.1-1.1c0.7,0,1.1,0.5,1.1,1.1c0,0.6-0.4,1.1-1.1,1.1C322.1,93.5,321.6,93,321.6,92.4z"/>
	<path d="M328.5,103.4c-1.6,0-1.9-1-1.9-2.9c0-0.7,0.1-2.6,0.1-3.7l-1.3,0v-1.3l0.5-0.1c0.6-0.1,0.8-0.3,1-1.3l0.2-1.3
		c0.3,0,0.7,0,1.1-0.1l-0.1,2.6l2.2,0c0,0.3,0,1.1,0,1.5l-2.3-0.1c-0.1,1.3-0.1,2.6-0.1,3.8c0,0.9,0.2,1.3,1,1.3
		c0.6,0,1.1-0.2,1.4-0.4l0.1,1C330.1,103,329.5,103.4,328.5,103.4z"/>
	<path d="M335,103.5c-2.1,0-3.6-1.5-3.6-4.1c0-2.5,1.6-4.2,3.7-4.2c2,0,3.5,1.8,3,4.5h-5.4c0.2,1.6,1.4,2.3,2.4,2.3
		c1.1,0,1.8-0.3,2.2-1l0.8,0.4C337.6,102.7,336.6,103.5,335,103.5z M332.7,98.5c1.5,0,3,0,4.3,0c-0.1-1.4-1.1-1.8-2.1-1.8
		C333.9,96.7,333,97.2,332.7,98.5z M333.8,93.8c0.8-0.9,1.5-1.8,2.1-2.7c0.4,0.2,1,0.8,1.2,1.2c-0.9,0.7-1.8,1.4-2.8,2.1L333.8,93.8
		z"/>
	<path d="M343.7,103.3c0.1-0.4,0.2-1.4,0.2-2c0-4.6,0-6.8,0-7.8c0-0.4-0.1-0.6-1.4-1.1v-1c0.8,0,1.9-0.1,2.7-0.2l0.2,0.2l-0.2,3.1
		c-0.1,1.3,0,1.6-0.2,2.7l0.1,0c0.4-1.2,1.5-2.1,2.8-2.1c1.6,0,3.2,1.7,3.2,4c0,2.4-1.7,4.3-3.5,4.3c-1,0-1.7-0.6-2.2-1.4h-0.1
		l-0.9,1.4L343.7,103.3z M349.7,99.2c0-1.7-1-2.4-2.1-2.4c-1.4,0-2.5,1.1-2.5,2.6c0,1.5,1.2,2.6,2.5,2.6
		C348.9,101.9,349.7,100.9,349.7,99.2z"/>
	<path d="M357.4,101.8L357.4,101.8c-0.5,1-1.7,1.6-2.7,1.6c-1.4,0-2.4-1-2.4-2.4c0-1.4,1.1-2.4,3.4-2.4c0.6,0,1,0.1,1.5,0.1v-0.5
		c0-1.1-0.8-1.5-1.9-1.5c-1.3,0-1.8,0.6-2.1,1l-0.7-0.6c0.5-1.2,1.8-2,3.2-2c1.5,0,2.9,1,2.8,3.1l0,3c0,0.3,0.1,0.4,0.8,0.7l0.5,0.3
		l-0.1,0.9l-2.3,0.1C357.4,102.5,357.4,102.2,357.4,101.8z M355.1,101.9c1,0,2.2-0.6,2.2-1.5V100c-0.6-0.2-1.2-0.2-1.8-0.2
		c-1,0-1.8,0.3-1.8,1C353.6,101.5,354.3,101.9,355.1,101.9z"/>
	<path d="M360.6,102.3l0.5-0.3c0.5-0.3,0.7-0.5,0.7-0.7c0-1,0-2.4,0-3.5c0-0.6-0.1-0.7-1.3-1.4v-1l2-0.2l0.2,0.1v1.6l0.1,0
		c0.4-0.9,1.5-1.8,2.7-1.8c1.5,0,2.7,1.1,2.7,3.2c0,0.5-0.1,1.9-0.1,3c0,0.3,0.1,0.5,0.6,0.7l0.5,0.2l-0.1,0.9
		c-0.5,0-1.1-0.1-1.8-0.1c-0.8,0-1.3,0.1-1.7,0.1v-0.9l0.5-0.3c0.7-0.3,0.7-0.8,0.7-1.3c0-0.9,0-1.8,0-2.3c-0.1-1.4-1-1.6-1.8-1.6
		c-1.3,0-2,0.5-2,1.8c0,1.1-0.1,1.5,0,2.2c0,0.5-0.1,0.9,0.6,1.3l0.5,0.3v0.9c-0.6,0-1.1-0.1-1.9-0.1c-0.9,0-1.2,0.1-1.7,0.1
		L360.6,102.3z"/>
	<path d="M375.4,101.8L375.4,101.8c-0.5,1-1.7,1.6-2.7,1.6c-1.4,0-2.4-1-2.4-2.4c0-1.4,1.1-2.4,3.4-2.4c0.6,0,1,0.1,1.5,0.1v-0.5
		c0-1.1-0.8-1.5-1.9-1.5c-1.3,0-1.8,0.6-2.1,1l-0.7-0.6c0.5-1.2,1.8-2,3.2-2c1.5,0,2.9,1,2.8,3.1l0,3c0,0.3,0.1,0.4,0.8,0.7l0.5,0.3
		l-0.1,0.9l-2.3,0.1C375.3,102.5,375.3,102.2,375.4,101.8z M373,101.9c1,0,2.2-0.6,2.2-1.5V100c-0.6-0.2-1.2-0.2-1.8-0.2
		c-1,0-1.8,0.3-1.8,1C371.6,101.5,372.2,101.9,373,101.9z"/>
	<path d="M378.3,102.3l0.5-0.3c0.5-0.3,0.7-0.5,0.7-0.7c0-1.4,0.1-5.7,0-7.9c0-0.4-0.2-0.6-1.6-1v-0.9c0.8,0,2.1-0.1,2.9-0.2
		l0.2,0.2c0,0.8-0.2,2.5-0.2,5.4v4.4c0,0.3,0.1,0.5,0.6,0.7l0.5,0.3l-0.1,0.9c-0.6,0-1-0.1-1.8-0.1c-0.8,0-1.2,0.1-1.7,0.1
		L378.3,102.3z"/>
	<path d="M386.6,103.5c-2.1,0-3.6-1.5-3.6-4.1c0-2.5,1.6-4.2,3.7-4.2c2,0,3.5,1.8,3,4.5h-5.4c0.2,1.6,1.4,2.3,2.4,2.3
		c1.1,0,1.8-0.3,2.2-1l0.8,0.4C389.2,102.7,388.1,103.5,386.6,103.5z M384.3,98.5c1.5,0,3,0,4.3,0c-0.1-1.4-1.1-1.8-2.1-1.8
		C385.5,96.7,384.6,97.2,384.3,98.5z"/>
	<path d="M391.6,102.3c0-0.7,0.5-1.3,1.3-1.3c0.7,0,1.2,0.5,1.2,1.2c0,0.7-0.5,1.2-1.3,1.2C392.2,103.4,391.7,102.9,391.6,102.3z"/>
	<path d="M397.5,96.5l0.8-0.9l3.1,3.4l-3.1,3.4l-0.8-0.9l2.1-2.5L397.5,96.5z M400.8,96.5l0.8-0.9l3.1,3.4l-3.1,3.4l-0.8-0.9
		l2.1-2.5L400.8,96.5z"/>
	<path d="M16.3,131.6c-0.8,4.2-3.4,6-6.7,6c-4.4,0-7.4-4.1-7.4-9.3c0-5.5,3.6-9.4,7.5-9.4c1.5,0,2.9,0.6,3.7,1.7h0.1
		c0.4-0.5,0.8-1,1.1-1.6l1.2,0.3c-0.1,2-0.2,4-0.2,6l-1.6,0.1c-0.5-3.2-2.8-3.8-4.4-3.8c-3.2,0-5,2.5-5,6.6c0,4,2,6.7,5.5,6.7
		c2.4,0,4-1.1,4.4-3.7L16.3,131.6z"/>
	<path d="M32,137.1c-1,0-3.3,0.1-4.2,0.1v-1.5l1.1-0.3c1.1-0.3,1.9-0.9,1.7-1.8l-0.8-2.5c-2.2,0-4.4,0-6.5,0l-0.8,2.5
		c-0.3,0.9,0.6,1.5,1.9,1.8l1.1,0.3v1.5c-0.9,0-3.3-0.1-4.4-0.1c-1.2,0-3.1,0.1-3.8,0.1l-0.1-1.4l1.1-0.4c1.2-0.5,1.7-0.9,2-1.8
		l3.8-10.3c0.5-1.4,0-1.7-1.5-2.2l-1-0.4l0.1-1.4h6.6l4.7,14.3c0.3,1.1,0.6,1.3,1.8,1.8l1.1,0.4l-0.1,1.4
		C35.1,137.2,33.3,137.1,32,137.1z M24.1,128.8c1.7,0,3.3,0,5,0l-2.1-6.7h-0.6L24.1,128.8z"/>
	<path d="M37.1,135.8l1.1-0.4c1.2-0.4,1.8-0.8,1.8-1.8v-10.7c0-1-0.6-1.4-1.8-1.8l-1.1-0.4l0.1-1.4h6l7.6,14.1h0.5l0-10.5
		c0-1-0.8-1.5-2.1-1.8l-1.1-0.3v-1.5c0.9,0,3.3,0.1,4.3,0.1c1.2,0,3-0.1,3.7-0.1l0.1,1.4l-1.1,0.4c-1.2,0.4-1.8,0.8-1.8,1.8v14.3h-3
		l-7.9-14.5H42v10.9c0,1,0.8,1.5,2.1,1.8l1.1,0.3v1.5c-0.9,0-3.2-0.1-4.1-0.1c-1.2,0-3.1,0.1-3.8,0.1L37.1,135.8z"/>
	<path d="M57.4,135.8l1.1-0.4c1.2-0.4,1.8-0.9,1.8-1.9v-10.6c0-1-0.6-1.4-1.8-1.8l-1.1-0.4l0.1-1.4H69l1.7-0.1
		c-0.1,1.6-0.1,4,0.1,5.4l-1.7,0.1l-0.3-1.7c-0.2-1-0.5-1.2-1.6-1.2l-4.8-0.1v5.2l6-0.2v2.6l-6-0.2v5.8l5.3-0.1
		c0.9,0,1.1-0.3,1.2-1.1l0.3-2.2H71c0,1.9,0,4.3,0.1,5.8H57.5L57.4,135.8z"/>
	<path d="M74.3,137c0.1-1.3,0.4-4,0.4-6h1.6c0.2,3.2,2.2,4.2,4.4,4.2c2.1,0,3.3-0.9,3.3-2.6c0-1.5-1.1-2.3-4.2-3.4
		c-3.2-1.1-5-2.3-5-5.1c0-3.3,2.4-5.1,5.3-5.1c1.4,0,2.7,0.4,3.4,1.6h0.1c0.4-0.5,0.7-0.9,1-1.5l1.2,0.3c-0.2,1.2-0.3,3.6-0.3,5.4
		l-1.7,0.1c-0.5-2.9-2.4-3.4-3.7-3.4c-1.9,0-3,1-3,2.6c0,1.4,1,2,3.9,3.1c3.4,1.2,5.2,2.8,5.2,5.4c0,3.3-2.4,5.1-5.6,5.1
		c-1.8,0-3.1-0.7-4-1.9h-0.1l-1.1,1.6L74.3,137z"/>
	<path d="M94.4,135.8l1.1-0.4c1.2-0.4,1.8-0.9,1.8-1.9v-10.6c0-1-0.6-1.4-1.8-1.8l-1.1-0.4l0.1-1.4h7c4.8,0,6.9,2.6,6.8,5.6
		c0,3.1-2.3,5.8-6.7,5.8c-0.7,0-1.6-0.1-2.1-0.2v2.9c0,1,0.6,1.5,1.8,1.9l1.1,0.4l-0.1,1.4c-0.7,0-2.7-0.1-3.9-0.1
		c-1.2,0-3.1,0.1-3.8,0.1L94.4,135.8z M102.3,128.4c2.7,0,3.7-1.5,3.7-3.2c0-2-1.3-3.3-3.9-3.3h-2.6v6.3
		C100.2,128.3,101.5,128.4,102.3,128.4z"/>
	<path d="M110.2,135.8l1.1-0.4c1.2-0.5,1.8-0.8,1.8-1.7v-10.8c0-1-0.6-1.2-1.8-1.7l-1.1-0.4l0.1-1.5c0.7,0,2.6,0.1,3.8,0.1
		c1.2,0,3.2-0.1,3.9-0.1l0.1,1.5l-1.1,0.4c-1.2,0.4-1.7,0.7-1.7,1.7v10.8c0,1,0.6,1.3,1.8,1.7l1.1,0.4l-0.1,1.4
		c-0.7,0-2.6-0.1-3.8-0.1c-1.2,0-3.1,0.1-3.8,0.1L110.2,135.8z"/>
	<path d="M120.4,128.5c0-5.3,3.7-9.6,7.9-9.6c1.6,0,3.1,0.6,3.9,1.7h0.1c0.4-0.5,0.8-1,1.1-1.6l1.2,0.3c-0.1,1.9-0.2,3.7-0.2,5.7
		h-1.6c-0.5-3-2.8-3.4-4.6-3.4c-3.4,0-5.4,2.8-5.4,6.4c0,4,1.8,6.8,5.5,6.8c2.2,0,3.4-0.8,4.4-1.9l-0.1-2.5l-4.6,0.1
		c-0.1-0.8-0.1-1.7,0-2.4h6.7v5.2l0.3,4l-1.6,0.2l-0.6-2.2c-1.3,1.4-3.2,2.4-5.2,2.4C123.4,137.6,120.4,133.6,120.4,128.5z"/>
	<path d="M150.3,137.2L149,134c-1.4-3.5-2.6-4.2-4.5-4.3l-1.5-0.1v3.9c0,1,0.7,1.5,1.9,1.8l1.1,0.3v1.5c-0.8,0-3.3-0.1-4.2-0.1
		c-1.2,0-3,0.1-3.7,0.1l-0.1-1.4l1.1-0.4c1.2-0.4,1.8-0.8,1.8-1.8v-10.7c0-1-0.6-1.4-1.8-1.8l-1.1-0.4l0.1-1.4h7.4
		c4.8,0,6.2,3.2,6.1,5.1c-0.1,1.7-0.9,3.5-3.2,4.4c0.6,0.5,1,1.1,1.5,2c1.9,3.5,2,3.9,3.4,4.5l1,0.4l-0.1,1.5H150.3z M146.5,127.6
		c1.5-0.2,2.6-1.3,2.6-2.8c0-1.4-1.2-2.8-3.7-2.8l-2.5-0.1v5.7C144.6,127.7,145.9,127.7,146.5,127.6z"/>
	<path d="M155.4,135.8l1.1-0.4c1.2-0.4,1.8-0.9,1.8-1.9v-10.6c0-1-0.6-1.4-1.8-1.8l-1.1-0.4l0.1-1.4H167l1.7-0.1
		c-0.1,1.6-0.1,4,0.1,5.4l-1.7,0.1l-0.3-1.7c-0.2-1-0.5-1.2-1.6-1.2l-4.8-0.1v5.2l6-0.2v2.6l-6-0.2v5.8l5.3-0.1
		c0.9,0,1.1-0.3,1.2-1.1l0.3-2.2h1.7c0,1.9,0,4.3,0.1,5.8h-13.6L155.4,135.8z"/>
	<path d="M172.2,137c0.1-1.3,0.4-4,0.4-6h1.6c0.2,3.2,2.2,4.2,4.4,4.2c2.1,0,3.3-0.9,3.3-2.6c0-1.5-1.1-2.3-4.2-3.4
		c-3.2-1.1-5-2.3-5-5.1c0-3.3,2.4-5.1,5.3-5.1c1.4,0,2.7,0.4,3.4,1.6h0.1c0.4-0.5,0.7-0.9,1-1.5l1.2,0.3c-0.2,1.2-0.3,3.6-0.3,5.4
		l-1.7,0.1c-0.5-2.9-2.4-3.4-3.7-3.4c-1.9,0-3,1-3,2.6c0,1.4,1,2,3.9,3.1c3.4,1.2,5.2,2.8,5.2,5.4c0,3.3-2.4,5.1-5.6,5.1
		c-1.8,0-3.1-0.7-4-1.9h-0.1l-1.1,1.6L172.2,137z"/>
	<path d="M204,137.2c-0.7,0-2.7-0.1-3.9-0.1c-1.2,0-3.1,0.1-3.8,0.1l-0.1-1.4l1.1-0.4c1.2-0.4,1.7-0.9,1.7-1.9v-11.7l-3.1,0
		c-0.9,0-1,0.2-1.2,1.1l-0.4,1.5l-1.7-0.1c0.1-1.4,0.2-3.4,0.2-5h13.1l1.7-0.1c0,1.8-0.1,3.4,0.1,5.1l-1.7,0.1l-0.3-1.5
		c-0.2-0.9-0.3-1-1.2-1.1l-3.1-0.1v11.8c0,1,0.6,1.5,1.8,1.9l1.1,0.4L204,137.2z"/>
	<path d="M222.2,137.2l-1.3-3.2c-1.4-3.5-2.6-4.2-4.5-4.3l-1.5-0.1v3.9c0,1,0.7,1.5,1.9,1.8l1.1,0.3v1.5c-0.8,0-3.3-0.1-4.2-0.1
		c-1.2,0-3,0.1-3.7,0.1l-0.1-1.4l1.1-0.4c1.2-0.4,1.8-0.8,1.8-1.8v-10.7c0-1-0.6-1.4-1.8-1.8l-1.1-0.4l0.1-1.4h7.4
		c4.8,0,6.2,3.2,6.1,5.1c-0.1,1.7-0.9,3.5-3.2,4.4c0.6,0.5,1,1.1,1.5,2c1.9,3.5,2,3.9,3.4,4.5l1,0.4l-0.1,1.5H222.2z M218.4,127.6
		c1.5-0.2,2.6-1.3,2.6-2.8c0-1.4-1.2-2.8-3.7-2.8l-2.5-0.1v5.7C216.5,127.7,217.8,127.7,218.4,127.6z"/>
	<path d="M241.3,137.1c-1,0-3.3,0.1-4.2,0.1v-1.5l1.1-0.3c1.1-0.3,1.9-0.9,1.7-1.8l-0.8-2.5c-2.2,0-4.4,0-6.5,0l-0.8,2.5
		c-0.3,0.9,0.6,1.5,1.9,1.8l1.1,0.3v1.5c-0.9,0-3.3-0.1-4.4-0.1c-1.2,0-3.1,0.1-3.8,0.1l-0.1-1.4l1.1-0.4c1.2-0.5,1.7-0.9,2-1.8
		l3.8-10.3c0.5-1.4,0-1.7-1.5-2.2l-1-0.4l0.1-1.4h6.6l4.7,14.3c0.3,1.1,0.6,1.3,1.8,1.8l1.1,0.4l-0.1,1.4
		C244.4,137.2,242.5,137.1,241.3,137.1z M233.4,128.8c1.7,0,3.3,0,5,0l-2.1-6.7h-0.6L233.4,128.8z"/>
	<path d="M246.4,135.8l1.1-0.4c1.2-0.4,1.8-0.8,1.8-1.8v-10.7c0-1-0.6-1.4-1.8-1.8l-1.1-0.4l0.1-1.4h6l7.6,14.1h0.5l0-10.5
		c0-1-0.8-1.5-2.1-1.8l-1.1-0.3v-1.5c0.9,0,3.3,0.1,4.3,0.1c1.2,0,3-0.1,3.7-0.1l0.1,1.4l-1.1,0.4c-1.2,0.4-1.8,0.8-1.8,1.8v14.3h-3
		l-7.9-14.5h-0.5v10.9c0,1,0.8,1.5,2.1,1.8l1.1,0.3v1.5c-0.9,0-3.2-0.1-4.1-0.1c-1.2,0-3.1,0.1-3.8,0.1L246.4,135.8z"/>
	<path d="M267.3,137c0.1-1.3,0.4-4,0.4-6h1.6c0.2,3.2,2.2,4.2,4.4,4.2c2.1,0,3.3-0.9,3.3-2.6c0-1.5-1.1-2.3-4.2-3.4
		c-3.2-1.1-5-2.3-5-5.1c0-3.3,2.4-5.1,5.3-5.1c1.4,0,2.7,0.4,3.4,1.6h0.1c0.4-0.5,0.7-0.9,1-1.5l1.2,0.3c-0.2,1.2-0.3,3.6-0.3,5.4
		l-1.7,0.1c-0.5-2.9-2.4-3.4-3.7-3.4c-1.9,0-3,1-3,2.6c0,1.4,1,2,3.9,3.1c3.4,1.2,5.3,2.8,5.3,5.4c0,3.3-2.4,5.1-5.6,5.1
		c-1.8,0-3.1-0.7-4-1.9h-0.1l-1.1,1.6L267.3,137z"/>
	<path d="M281.7,135.8l1.1-0.4c1.2-0.5,1.8-0.8,1.8-1.7v-10.8c0-1-0.6-1.2-1.8-1.7l-1.1-0.4l0.1-1.5c0.7,0,2.6,0.1,3.8,0.1
		c1.2,0,3.2-0.1,3.9-0.1l0.1,1.5l-1.1,0.4c-1.2,0.4-1.7,0.7-1.7,1.7v10.8c0,1,0.6,1.3,1.8,1.7l1.1,0.4l-0.1,1.4
		c-0.7,0-2.6-0.1-3.8-0.1s-3.1,0.1-3.8,0.1L281.7,135.8z"/>
	<path d="M291.4,135.8l1.1-0.4c1.2-0.4,1.8-0.9,1.8-1.9V123c0-1-0.6-1.4-1.8-1.8l-1.1-0.3l0.1-1.5c0.7,0,2.6,0.1,3.8,0.1
		c1.2,0,3.2-0.1,3.9-0.1l0.1,1.5l-1.1,0.3c-1.2,0.4-1.7,0.8-1.7,1.8v11.9l5-0.1c0.9,0,1.1-0.3,1.2-1.1l0.4-3h1.6
		c0,2.1,0,4.8,0.1,6.5h-13.3L291.4,135.8z"/>
	<path d="M307,135.8l1.1-0.4c1.2-0.5,1.8-0.8,1.8-1.7v-10.8c0-1-0.6-1.2-1.8-1.7l-1.1-0.4l0.1-1.5c0.7,0,2.6,0.1,3.8,0.1
		c1.2,0,3.2-0.1,3.9-0.1l0.1,1.5l-1.1,0.4c-1.2,0.4-1.7,0.7-1.7,1.7v10.8c0,1,0.6,1.3,1.8,1.7l1.1,0.4l-0.1,1.4
		c-0.7,0-2.6-0.1-3.8-0.1s-3.1,0.1-3.8,0.1L307,135.8z"/>
	<path d="M316.7,135.8l1.1-0.4c1.2-0.4,1.8-0.9,1.8-1.9v-10.6c0-1-0.6-1.4-1.8-1.8l-1.1-0.4l0.1-1.4h11.5l1.7-0.1
		c-0.1,1.6-0.1,4,0.1,5.4l-1.7,0.1l-0.3-1.7c-0.2-1-0.5-1.2-1.6-1.2l-4.8-0.1v5.2l6-0.2v2.6l-6-0.2v5.8l5.3-0.1
		c0.9,0,1.1-0.3,1.2-1.1l0.3-2.2h1.7c0,1.9,0,4.3,0.1,5.8h-13.6L316.7,135.8z"/>
	<path d="M332.8,135.8l1.1-0.4c1.2-0.4,1.8-0.8,1.8-1.8v-10.7c0-1-0.6-1.4-1.8-1.8l-1.1-0.4l0.1-1.4h6l7.6,14.1h0.5l0-10.5
		c0-1-0.8-1.5-2.1-1.8l-1.1-0.3v-1.5c0.9,0,3.3,0.1,4.3,0.1c1.2,0,3-0.1,3.7-0.1l0.1,1.4l-1.1,0.4c-1.2,0.4-1.8,0.8-1.8,1.8v14.3h-3
		l-7.9-14.5h-0.5v10.9c0,1,0.8,1.5,2.1,1.8l1.1,0.3v1.5c-0.9,0-3.2-0.1-4.1-0.1c-1.2,0-3.1,0.1-3.8,0.1L332.8,135.8z"/>
	<path d="M364.8,137.2c-0.7,0-2.7-0.1-3.9-0.1c-1.2,0-3.1,0.1-3.8,0.1l-0.1-1.4l1.1-0.4c1.2-0.4,1.7-0.9,1.7-1.9v-11.7l-3.1,0
		c-0.9,0-1,0.2-1.2,1.1l-0.4,1.5l-1.7-0.1c0.1-1.4,0.2-3.4,0.2-5h13.1l1.7-0.1c0,1.8-0.1,3.4,0.1,5.1l-1.7,0.1l-0.3-1.5
		c-0.2-0.9-0.3-1-1.2-1.1l-3.1-0.1v11.8c0,1,0.6,1.5,1.8,1.9l1.1,0.4L364.8,137.2z"/>
	<path d="M372.9,129.6v-6.7c0-1-0.6-1.4-1.7-1.8l-1.1-0.4l0.1-1.4c0.7,0,2.5,0.1,3.7,0.1c1,0,3.4-0.1,4.3-0.1v1.5l-1.1,0.3
		c-1.2,0.3-1.9,0.8-1.9,1.8v6.7c0,3.4,1.2,5.2,4.5,5.2s4.3-1.9,4.3-5.2v-6.7c0-1-0.8-1.5-1.9-1.8l-1.1-0.3v-1.5
		c0.9,0,3.3,0.1,4.2,0.1c1.1,0,3-0.1,3.6-0.1l0.1,1.4l-1.1,0.4c-1.1,0.4-1.7,0.8-1.7,1.8v6.5c0,4.9-2.3,8.2-6.7,8.2
		C375,137.6,372.9,134.5,372.9,129.6z"/>
	<path d="M402.9,137.2l-1.3-3.2c-1.4-3.5-2.6-4.2-4.5-4.3l-1.5-0.1v3.9c0,1,0.7,1.5,1.9,1.8l1.1,0.3v1.5c-0.8,0-3.3-0.1-4.2-0.1
		c-1.2,0-3,0.1-3.7,0.1l-0.1-1.4l1.1-0.4c1.2-0.4,1.8-0.8,1.8-1.8v-10.7c0-1-0.6-1.4-1.8-1.8l-1.1-0.4l0.1-1.4h7.4
		c4.8,0,6.2,3.2,6.1,5.1c-0.1,1.7-0.9,3.5-3.2,4.4c0.6,0.5,1,1.1,1.5,2c1.9,3.5,2,3.9,3.4,4.5l1,0.4l-0.1,1.5H402.9z M399.1,127.6
		c1.5-0.2,2.6-1.3,2.6-2.8c0-1.4-1.2-2.8-3.7-2.8l-2.5-0.1v5.7C397.2,127.7,398.5,127.7,399.1,127.6z"/>
	<path d="M1.4,179.4l1.1-0.4c0.7-0.3,0.9-0.5,0.9-1.6v-10.8c0-1.2-0.3-1.4-1.9-2.1v-4.7c2.1,0,4.1-0.1,6.2-0.2l0.2,0.2l-0.3,2.9
		l0.1,0c1-2.2,3.3-3.3,5.7-3.3c4.4,0,7.8,3.6,7.8,9c0,5.2-3.2,9.1-7.8,9.1c-2,0-3.7-0.8-4.6-2l-0.1,0v1.3c0,1.2,0.1,1.7,0.9,2
		l1.2,0.5v4.2c-1.1,0-3.1-0.1-4.8-0.1c-1.9,0-3.7,0.1-4.5,0.1C1.5,182.2,1.5,180.9,1.4,179.4z M16,168.4c0-2.4-1.5-3.4-3.5-3.4
		c-2.6,0-3.9,1.7-3.9,3.6c0,2.1,1.5,3.5,3.9,3.5C14.9,172,16,170.6,16,168.4z"/>
	<path d="M36.1,177.2c0-0.9,0.1-1.8,0.2-2.9l-0.1,0c-0.7,1.6-3,3.3-6.2,3.3c-3.5,0-5.8-2.1-5.8-6.5v-4.4c0-1.2-0.3-1.3-2.1-2.1v-4.7
		c2.5,0,4.9-0.1,7.3-0.2l0.2,0.2c-0.1,2.7-0.3,6.3-0.2,8.8c0.1,2.6,0.6,3.1,2.4,3.1c1.8,0,2.7-0.7,2.9-2.7c0-0.6,0.1-1.3,0.1-2.4
		s-0.3-1.4-2.3-2.1v-4.7c3,0,5.1-0.1,7.7-0.2l0.2,0.2c-0.2,2.3-0.2,9-0.2,11.1c0,1.1,0.1,1.2,0.7,1.5l1.1,0.4c0,1.5,0,2.9-0.1,4.4
		H36.1z"/>
	<path d="M43.3,172.8l1.1-0.4c0.7-0.3,0.8-0.5,0.8-1.6v-4.2c0-1.2-0.3-1.4-1.9-2.1v-4.7c2.1,0,4.1-0.1,6.2-0.2l0.2,0.2l-0.3,2.9
		l0.1,0c0.8-1.7,2.5-3.3,6-3.3c3.8,0,6.3,2.4,6.3,6.3v5.1c0,1.1,0.1,1.2,0.7,1.5l1.1,0.4c0,1.5,0,2.9-0.1,4.4
		c-1.5,0-2.5-0.1-4.5-0.1c-1.5,0-4.3,0.1-4.8,0.1v-4.4l1-0.4c1.1-0.4,1.2-0.9,1.2-2.1v-2.6c0-1.5-0.8-2.4-3.2-2.4
		c-1.9,0-2.6,0.8-2.6,2.4v2.6c0,1.2,0,1.7,1.2,2.1l1.1,0.4v4.4c-1.1,0-3.4-0.1-5-0.1c-1.9,0-3.5,0.1-4.4,0.1
		C43.4,175.6,43.4,174.3,43.3,172.8z"/>
	<path d="M64.9,171.1l3.8,0.1c0.5,1.3,1.8,1.6,3.5,1.6c1.2,0,2.1-0.2,2.1-1c0-1-1.1-1.2-4-1.8c-3.8-0.7-5.4-2.4-5.4-5.2
		c0-3.6,2.6-5.4,6.2-5.4c1.7,0,3,0.4,3.7,1h0.2l1.6-0.7l2.8,0.1c-0.1,1.8-0.2,4.4-0.3,5.9l-3.7,0.1c-0.5-0.9-1.4-1.3-2.9-1.3
		c-1.3,0-2,0.3-2,1s0.5,1,3.6,1.5c4.1,0.5,5.8,2.3,5.8,5.1c0,4.1-2.8,5.4-6.5,5.4c-2.1,0-3.5-0.4-4.4-1h-0.2l-1.6,0.7l-2.9-0.1
		C64.7,175.1,64.8,173.1,64.9,171.1z"/>
	<path d="M86.9,168.6c0-5.1,3.2-9.1,9-9.1c5.4,0,8.6,3.6,8.6,9c0,5.1-3.2,9.1-9,9.1C90.2,177.6,86.9,174,86.9,168.6z M99.3,168.8
		c0-2.4-1.1-3.8-3.8-3.8c-2.4,0-3.2,1.3-3.3,3.2c0,2.5,1.2,3.9,3.8,3.9C98.5,172,99.2,170.8,99.3,168.8z"/>
	<path d="M106.4,172.8l0.9-0.4c0.6-0.3,0.7-0.5,0.7-1.6v-5.6l-2.2-0.2v-5.2l2-0.1v-0.7c0-4.3,2-7.2,7.5-7.2c1.4,0,2.8,0.1,3.7,0.4
		l-0.3,5.5c-0.5-0.1-2-0.3-3.2-0.3c-1.9,0-2.5,0.4-2.5,2v0.4h4.5c0,1,0,4.2-0.1,5.6l-4.2-0.2v5c0,1.2,0,1.7,1.4,2.1l1.4,0.4v4.4
		c-1.2,0-3.6-0.1-5.4-0.1s-3.3,0.1-4.1,0.1C106.6,175.6,106.5,174.3,106.4,172.8z"/>
	<path d="M124.9,171.1l3.8,0.1c0.5,1.3,1.8,1.6,3.5,1.6c1.2,0,2.1-0.2,2.1-1c0-1-1.1-1.2-4-1.8c-3.8-0.7-5.4-2.4-5.4-5.2
		c0-3.6,2.6-5.4,6.2-5.4c1.7,0,3,0.4,3.7,1h0.2l1.6-0.7l2.8,0.1c-0.1,1.8-0.2,4.4-0.3,5.9l-3.7,0.1c-0.5-0.9-1.4-1.3-2.9-1.3
		c-1.3,0-2,0.3-2,1s0.5,1,3.6,1.5c4.1,0.5,5.8,2.3,5.8,5.1c0,4.1-2.8,5.4-6.5,5.4c-2.1,0-3.5-0.4-4.4-1h-0.2l-1.6,0.7l-2.9-0.1
		C124.7,175.1,124.8,173.1,124.9,171.1z"/>
	<path d="M149.9,177.6c-5.2,0-8.8-3.2-8.8-8.9c0-5.4,3.3-9.3,8.7-9.3c5.3,0,8.9,3.7,8,10.8l-11.4,0c0.4,1.7,2.1,2.4,4.4,2.4
		c1.9,0,3.4-0.5,4.8-1.4l1.7,3.6C156.1,176.2,153.4,177.6,149.9,177.6z M146.2,166.9c1.8-0.1,4.7-0.1,6.6-0.2
		c-0.2-1.2-1.2-2.3-3.2-2.3C147.8,164.5,146.5,165.3,146.2,166.9z"/>
	<path d="M159.5,172.8l1.1-0.4c0.7-0.3,0.8-0.5,0.8-1.6v-4.2c0-1.2-0.3-1.4-1.9-2.1v-4.7c2.1,0,4-0.1,6-0.2l0.2,0.2l-0.3,2.9l0.1,0
		c0.9-2,2.2-3.3,4.9-3.3c0.4,0,0.9,0,1.2,0.1l-0.2,6.2c-3.8-0.1-4.7,0.4-4.7,2.6v1.9c0,1.2,0.2,1.7,1.3,2.1l1.2,0.4v4.4
		c-1.1,0-3.6-0.1-5.2-0.1c-1.9,0-3.5,0.1-4.4,0.1C159.6,175.6,159.5,174.3,159.5,172.8z"/>
	<path d="M172.9,177.2c0-1.5,0-2.9-0.1-4.4l1.1-0.4c0.7-0.3,0.9-0.5,0.9-1.6v-4.2c0-1.2-0.3-1.4-2-2.1v-4.7l7.3-0.2l0.2,0.2
		c-0.1,3.5-0.2,8.1-0.2,10.4c0,1.2,0,1.8,0.9,2.1l1.1,0.4v4.4c-1.1,0-3.1-0.1-4.8-0.1C175.6,177.1,173.8,177.2,172.9,177.2z
		 M173.2,154.9c0-2,1.5-3.4,3.9-3.4c2.6,0,4,1.3,4,3.4c0,2.1-1.4,3.3-4,3.3C174.7,158.3,173.2,157,173.2,154.9z"/>
	<path d="M183.8,172.8l0.9-0.4c0.6-0.3,0.7-0.5,0.7-1.6v-5.6l-2.2-0.2v-5.2l2-0.1v-0.7c0-4.3,2-7.2,7.5-7.2c1.4,0,2.8,0.1,3.7,0.4
		l-0.3,5.5c-0.5-0.1-2-0.3-3.2-0.3c-1.9,0-2.5,0.4-2.5,2v0.4h4.5c0,1,0,4.2-0.1,5.6l-4.2-0.2v5c0,1.2,0,1.7,1.4,2.1l1.4,0.4v4.4
		c-1.2,0-3.6-0.1-5.4-0.1s-3.3,0.1-4.1,0.1C183.9,175.6,183.8,174.3,183.8,172.8z"/>
	<path d="M196.4,171.1l3.8,0.1c0.5,1.3,1.8,1.6,3.5,1.6c1.2,0,2.1-0.2,2.1-1c0-1-1.1-1.2-4-1.8c-3.8-0.7-5.4-2.4-5.4-5.2
		c0-3.6,2.6-5.4,6.2-5.4c1.7,0,3,0.4,3.7,1h0.2l1.6-0.7l2.8,0.1c-0.1,1.8-0.2,4.4-0.3,5.9l-3.7,0.1c-0.5-0.9-1.4-1.3-2.9-1.3
		c-1.3,0-2,0.3-2,1s0.5,1,3.6,1.5c4.1,0.5,5.8,2.3,5.8,5.1c0,4.1-2.8,5.4-6.5,5.4c-2.1,0-3.5-0.4-4.4-1h-0.2l-1.6,0.7l-2.9-0.1
		C196.1,175.1,196.3,173.1,196.4,171.1z"/>
	<path d="M229.9,175h-0.2c-0.9,1.8-3.2,2.6-5.6,2.6c-4.2,0-5.7-2.3-5.7-5.2c0-3.9,3.2-5.7,7.1-5.7c1.3,0,2.5,0.2,3.3,0.3v-0.3
		c0-1.3-1.6-2-3.4-2c-1.9,0-4.1,0.7-4.8,1.4l-1.6-4.1c0.9-1.1,3.8-2.6,7.4-2.6c4.5,0,7.5,2.3,7.5,6.9v4.6c0,1.1,0.1,1.2,0.7,1.5
		l1,0.4c0,1.5,0,2.9-0.1,4.4h-5.8V175z M225.8,172.9c1.5,0,3.2-0.8,3.2-2.1v-0.4c-0.8-0.3-1.6-0.4-2.7-0.4c-1.9,0-2.7,0.6-2.7,1.5
		C223.6,172.5,224.5,172.9,225.8,172.9z"/>
	<path d="M236.9,172.8l1.1-0.4c0.7-0.3,0.8-0.5,0.8-1.6v-4.2c0-1.2-0.3-1.4-1.9-2.1v-4.7c2.1,0,4.1-0.1,6.2-0.2l0.2,0.2l-0.3,2.9
		l0.1,0c0.8-1.7,2.5-3.3,6-3.3c3.8,0,6.3,2.4,6.3,6.3v5.1c0,1.1,0.1,1.2,0.7,1.5l1,0.4c0,1.5,0,2.9-0.1,4.4c-1.5,0-2.5-0.1-4.5-0.1
		c-1.5,0-4.3,0.1-4.8,0.1v-4.4l1.1-0.4c1.1-0.4,1.2-0.9,1.2-2.1v-2.6c0-1.5-0.8-2.4-3.2-2.4c-1.9,0-2.6,0.8-2.6,2.4v2.6
		c0,1.2,0,1.7,1.2,2.1l1.1,0.4v4.4c-1.1,0-3.4-0.1-5-0.1c-1.9,0-3.5,0.1-4.4,0.1C237,175.6,236.9,174.3,236.9,172.8z"/>
	<path d="M265.7,177.6c-4.7,0-7.6-3.8-7.6-8.8c0-5.2,3-9.3,7.9-9.3c2.1,0,3.8,0.8,4.7,2l0.2,0v-2.6c0-1.2-0.8-1.5-2.3-2.1v-4.7
		l7.5-0.4l0.3,0.3c-0.2,2.9-0.5,7.7-0.5,12.2v6.7c0,1.1,0.1,1.3,0.7,1.5l1.2,0.4c0,1.5,0,2.9-0.1,4.4h-6V174l-0.2,0
		C270.8,176.1,268.4,177.6,265.7,177.6z M266.8,165c-2.2,0-3.4,1.2-3.4,3.4c0,2.2,1.2,3.6,3.4,3.6c2.3,0,3.9-1.6,3.9-3.6
		C270.7,166.5,269.2,165,266.8,165z"/>
	<path d="M285.2,171.1l3.8,0.1c0.5,1.3,1.8,1.6,3.5,1.6c1.2,0,2.1-0.2,2.1-1c0-1-1.1-1.2-4-1.8c-3.8-0.7-5.4-2.4-5.4-5.2
		c0-3.6,2.6-5.4,6.2-5.4c1.7,0,3,0.4,3.7,1h0.2l1.6-0.7l2.8,0.1c-0.1,1.8-0.2,4.4-0.3,5.9l-3.7,0.1c-0.5-0.9-1.4-1.3-2.9-1.3
		c-1.3,0-2,0.3-2,1s0.5,1,3.6,1.5c4.1,0.5,5.8,2.3,5.8,5.1c0,4.1-2.8,5.4-6.5,5.4c-2.1,0-3.5-0.4-4.4-1h-0.2l-1.6,0.7l-2.9-0.1
		C284.9,175.1,285.1,173.1,285.2,171.1z"/>
	<path d="M301.2,172.8l0.9-0.4c0.6-0.3,0.7-0.5,0.7-1.6v-11.9c0-1.2-0.4-1.3-2-2.1v-4.7l7.3-0.4l0.3,0.3c0,1.5-0.1,3.3-0.2,5.4
		c-0.1,1.5-0.4,3.1-0.7,4.7l0.1,0c0.8-1.4,2.7-2.7,5.3-2.7c3.4,0,6.5,2,6.5,6.3v5.1c0,1.1,0.1,1.2,0.7,1.5l1,0.4
		c0,1.5,0,2.9-0.1,4.4c-1.5,0-2.5-0.1-4.5-0.1c-1.5,0-4.3,0.1-4.8,0.1v-4.4l1.1-0.4c1.1-0.4,1.2-0.9,1.2-2.1v-2.6
		c0-1.5-0.8-2.4-3.2-2.4c-1.9,0-2.6,0.8-2.6,2.4v2.6c0,1.2,0,1.7,1.2,2.1l1.1,0.4v4.4c-1.1,0-3.4-0.1-5-0.1c-1.8,0-3.3,0.1-4.1,0.1
		C301.3,175.6,301.3,174.3,301.2,172.8z"/>
	<path d="M330.9,177.6c-5.2,0-8.8-3.2-8.8-8.9c0-5.4,3.3-9.3,8.7-9.3c5.3,0,8.9,3.7,8,10.8l-11.4,0c0.4,1.7,2.1,2.4,4.4,2.4
		c1.9,0,3.4-0.5,4.8-1.4l1.7,3.6C337,176.2,334.4,177.6,330.9,177.6z M327.2,166.9c1.8-0.1,4.7-0.1,6.6-0.2
		c-0.2-1.2-1.2-2.3-3.2-2.3C328.8,164.5,327.4,165.3,327.2,166.9z"/>
	<path d="M340.4,172.8l1.1-0.4c0.7-0.3,0.8-0.5,0.8-1.6v-4.2c0-1.2-0.3-1.4-1.9-2.1v-4.7c2.1,0,4-0.1,6-0.2l0.2,0.2l-0.3,2.9l0.2,0
		c0.9-2,2.2-3.3,4.9-3.3c0.4,0,0.9,0,1.2,0.1l-0.2,6.2c-3.8-0.1-4.7,0.4-4.7,2.6v1.9c0,1.2,0.1,1.7,1.3,2.1l1.2,0.4v4.4
		c-1.1,0-3.6-0.1-5.2-0.1c-1.9,0-3.5,0.1-4.4,0.1C340.6,175.6,340.5,174.3,340.4,172.8z"/>
	<path d="M353.9,177.2c0-1.5,0-2.9-0.1-4.4l1.1-0.4c0.7-0.3,0.9-0.5,0.9-1.6v-4.2c0-1.2-0.3-1.4-2-2.1v-4.7l7.3-0.2l0.2,0.2
		c-0.1,3.5-0.2,8.1-0.2,10.4c0,1.2,0,1.8,0.9,2.1l1.1,0.4v4.4c-1.1,0-3.1-0.1-4.8-0.1C356.5,177.1,354.8,177.2,353.9,177.2z
		 M354.2,154.9c0-2,1.5-3.4,3.9-3.4c2.6,0,4,1.3,4,3.4c0,2.1-1.4,3.3-4,3.3C355.7,158.3,354.2,157,354.2,154.9z"/>
	<path d="M385.1,177.2c-1,0-3.5-0.1-5-0.1c-1.9,0-3.4,0.1-4.2,0.1c0-1.4,0-2.7-0.1-4.1l1.2-0.7c0.7-0.4,0.6-1,0.6-2.1v-5.1l-6.1-0.1
		v5.1c0,1.2,0,1.6,0.9,2l1.5,0.8c-0.1,1.4-0.2,2.7-0.1,4.1c-1,0-3.5-0.1-5-0.1c-1.9,0-3.4,0.1-4.2,0.1c0-1.4,0-2.7-0.1-4.1l1.2-0.7
		c0.7-0.4,0.6-1,0.6-2.1v-5.1l-2.2-0.2v-5l2-0.2v-0.8c0-4.3,2.2-7.2,6.3-7.2c2.5,0,3.5,0.3,4.4,0.6l-0.7,5.1
		c-0.6-0.1-1.1-0.2-1.9-0.2c-2.2,0-2.9,0.5-2.9,2.2v0.2h6.1v-1c0-4.3,2.4-7.2,6.9-7.2c2.7,0,3.8,0.3,4.7,0.6l-0.7,5.1
		c-0.5-0.1-1.3-0.1-2.2-0.1c-2.6,0-3.5,0.5-3.5,2.2v0.5h4.7c0.2,1,0.2,4.1-0.1,5.5l-4.4,0v5c0,1.2,0,1.6,0.9,2l1.5,0.8
		C385.1,174.5,385.1,175.8,385.1,177.2z"/>
	<path d="M388.7,171.1l3.8,0.1c0.5,1.3,1.8,1.6,3.5,1.6c1.2,0,2.1-0.2,2.1-1c0-1-1.1-1.2-4-1.8c-3.8-0.7-5.4-2.4-5.4-5.2
		c0-3.6,2.6-5.4,6.2-5.4c1.7,0,3,0.4,3.7,1h0.2l1.6-0.7l2.8,0.1c-0.1,1.8-0.2,4.4-0.3,5.9l-3.7,0.1c-0.5-0.9-1.4-1.3-2.9-1.3
		c-1.3,0-2,0.3-2,1s0.5,1,3.6,1.5c4.1,0.5,5.8,2.3,5.8,5.1c0,4.1-2.8,5.4-6.5,5.4c-2.1,0-3.5-0.4-4.4-1h-0.2l-1.6,0.7l-2.9-0.1
		C388.5,175.1,388.6,173.1,388.7,171.1z"/>
	<path d="M1.3,200.4l0.6-0.2c0.6-0.2,0.9-0.4,1-1l0.3-5.8c0-0.5-0.3-0.7-1-1l-0.6-0.2l0.1-0.8h3.6l2.3,7.2h0.3l2.3-7.2h3.6l0.1,0.8
		l-0.6,0.2c-0.6,0.2-1,0.4-1,1l0.3,5.8c0,0.5,0.3,0.7,1,1l0.6,0.2l-0.1,0.8c-0.4,0-1.4,0-2,0c-0.5,0-1.9,0-2.3,0v-0.8l0.6-0.2
		c0.6-0.2,1.1-0.4,1-1l-0.3-6.2h-0.3L8,201.2H7.1l-2.7-8.1H4.2l-0.3,6.1c0,0.5,0.4,0.8,1,1l0.6,0.2v0.8c-0.4,0-1.7,0-2.2,0
		c-0.6,0-1.7,0-2.1,0L1.3,200.4z"/>
	<path d="M15,201.2l-0.1-0.8l0.4-0.2c0.5-0.2,0.6-0.4,0.6-0.6c0-0.8,0-2.1,0-3.1c0-0.5,0-0.6-1.1-1.1v-0.9l2.1-0.2l0.2,0.2
		c-0.1,1.2-0.1,4.2-0.1,5.2c0,0.3,0,0.4,0.6,0.6l0.5,0.2l0,0.8c-0.6,0-0.9,0-1.6,0C15.7,201.1,15.4,201.2,15,201.2z M15.6,191.7
		c0-0.5,0.4-0.9,1-0.9c0.6,0,1,0.4,1,0.9c0,0.5-0.4,0.9-1,0.9C16,192.7,15.6,192.3,15.6,191.7z"/>
	<path d="M21.6,201.4c-1.4,0-1.6-0.9-1.6-2.5c0-0.6,0-2.3,0.1-3.2l-1.1,0v-1.1l0.5-0.1c0.6-0.1,0.7-0.3,0.8-1.2l0.1-1.1
		c0.3,0,0.6,0,0.9,0l-0.1,2.3l1.9,0c0,0.3,0,1,0,1.3l-2,0c-0.1,1.1-0.1,2.2-0.1,3.3c0,0.8,0.2,1.1,0.9,1.1c0.5,0,0.9-0.2,1.3-0.3
		l0.1,0.8C23,201,22.5,201.4,21.6,201.4z"/>
	<path d="M32.7,200.6c0-0.2,0-0.8,0.1-1.1l-0.1,0c-0.4,1.2-1.6,2-2.6,2c-1.4,0-2.7-1.5-2.7-3.5c0-2,1.3-3.8,3-3.8
		c0.9,0,1.7,0.4,2.1,1.3l0.1,0l0-2.7c0-0.5-0.1-0.6-1.5-1V191c0.7,0,2,0,2.7-0.2l0.2,0.1c-0.1,1.9-0.1,3.9-0.1,5.3v3.2
		c0,0.3,0.1,0.4,0.7,0.7l0.4,0.3l0,0.8c-0.4,0-0.8,0-1.2,0c-0.4,0-0.7,0-0.9,0V200.6z M30.4,195.6c-1.2,0-1.9,0.7-1.9,2.1
		c0,1.6,0.8,2.4,1.9,2.4c1.3,0,2.2-1,2.2-2.5C32.5,196.4,31.6,195.6,30.4,195.6z"/>
	<path d="M38.8,201.4c-1.8,0-3.1-1.4-3.1-3.6c0-2.2,1.4-3.7,3.2-3.7c1.7,0,3.1,1.6,2.7,4h-4.8c0.2,1.4,1.2,2,2.1,2
		c0.9,0,1.5-0.3,1.9-0.9l0.7,0.3C41,200.7,40.1,201.4,38.8,201.4z M36.8,197.1c1.3,0,2.6,0,3.8,0c-0.1-1.2-1-1.6-1.9-1.6
		C37.7,195.5,37,195.9,36.8,197.1z"/>
	<path d="M42.9,200.4l0.4-0.2c0.4-0.2,0.6-0.4,0.6-0.6c0-0.9,0-2,0-3c0-0.5-0.1-0.6-1.2-1.2v-0.9l1.8-0.2l0.2,0.1v1.4l0.1,0
		c0.3-0.8,1.2-1.6,2.2-1.6c1.1,0,1.9,0.6,2,1.7h0.1c0.3-1,1.3-1.7,2.4-1.7c1.2,0,2.3,1,2.3,2.8c0,0.5,0,1.7,0,2.6
		c0,0.3,0.1,0.4,0.6,0.6l0.4,0.2l0,0.8c-0.5,0-1.1,0-1.6,0c-0.6,0-1.1,0-1.5,0v-0.8l0.5-0.2c0.6-0.3,0.6-0.9,0.6-1.4
		c0-0.7,0-1.3,0-1.7c-0.1-1.2-0.8-1.4-1.5-1.4c-1.1,0-1.7,0.4-1.7,1.5l0,1.6c0,0.6,0,1.2,0.6,1.4l0.5,0.2v0.8c-0.5,0-1.1,0-1.7,0
		c-0.6,0-1.1,0-1.5,0v-0.8l0.4-0.2c0.6-0.3,0.6-0.9,0.6-1.4c0-0.6,0-1.3,0-1.7c-0.1-1.3-0.8-1.5-1.5-1.5c-1.1,0-1.6,0.4-1.7,1.5
		c0,0.9,0,1,0,1.6c0,0.6,0,1.1,0.6,1.4l0.5,0.2v0.8c-0.5,0-1.1,0-1.7,0c-0.6,0-1.1,0-1.5,0L42.9,200.4z"/>
	<path d="M58.5,200.4l0.4-0.2c0.4-0.2,0.6-0.4,0.6-0.6c0-1.2,0.1-5,0-6.9c0-0.3-0.2-0.5-1.4-0.9V191c0.7,0,1.8,0,2.5-0.2l0.2,0.1
		c0,0.7-0.2,2.2-0.2,4.8v3.9c0,0.3,0.1,0.4,0.6,0.6l0.5,0.2l0,0.8c-0.5,0-0.9,0-1.6,0c-0.7,0-1.1,0-1.5,0L58.5,200.4z"/>
	<path d="M65.8,201.4c-1.8,0-3.1-1.4-3.1-3.6c0-2.2,1.4-3.7,3.2-3.7c1.7,0,3.1,1.6,2.7,4h-4.8c0.2,1.4,1.2,2,2.1,2
		c0.9,0,1.5-0.3,1.9-0.9l0.7,0.3C68,200.7,67.1,201.4,65.8,201.4z M63.7,197.1c1.3,0,2.6,0,3.8,0c-0.1-1.2-1-1.6-1.9-1.6
		C64.7,195.5,64,195.9,63.7,197.1z"/>
	<path d="M72.3,201.4c-1.4,0-1.6-0.9-1.6-2.5c0-0.6,0-2.3,0.1-3.2l-1.1,0v-1.1l0.5-0.1c0.6-0.1,0.7-0.3,0.8-1.2l0.1-1.1
		c0.3,0,0.6,0,0.9,0l-0.1,2.3l1.9,0c0,0.3,0,1,0,1.3l-2,0c-0.1,1.1-0.1,2.2-0.1,3.3c0,0.8,0.2,1.1,0.9,1.1c0.5,0,0.9-0.2,1.3-0.3
		l0.1,0.8C73.7,201,73.2,201.4,72.3,201.4z"/>
	<path d="M75,201.2l-0.1-0.8l4.1-4.8c-0.6,0-1.4,0-2.3,0c-0.4,0-0.5,0-0.5,0.4l-0.2,0.9l-0.8,0l0-2.6l1.8,0.1h3.5l0.1,1.1l-4,4.5
		c0.7,0,1.7,0,2.6,0c0.3,0,0.3,0,0.4-0.3l0.2-1.1l0.8,0v2.6C79.3,201.2,75.7,201.2,75,201.2z"/>
	<path d="M84.3,201.4c-1.4,0-1.6-0.9-1.6-2.5c0-0.6,0-2.3,0.1-3.2l-1.1,0v-1.1l0.5-0.1c0.6-0.1,0.7-0.3,0.8-1.2l0.1-1.1
		c0.3,0,0.6,0,0.9,0l-0.1,2.3l1.9,0c0,0.3,0,1,0,1.3l-2,0c-0.1,1.1-0.1,2.2-0.1,3.3c0,0.8,0.2,1.1,0.9,1.1c0.5,0,0.9-0.2,1.3-0.3
		l0.1,0.8C85.8,201,85.2,201.4,84.3,201.4z"/>
	<path d="M90.1,201.4c-1.8,0-3.1-1.4-3.1-3.6c0-2.2,1.4-3.7,3.2-3.7c1.7,0,3.1,1.6,2.7,4h-4.8c0.2,1.4,1.2,2,2.1,2
		c0.9,0,1.5-0.3,1.9-0.9l0.7,0.3C92.4,200.7,91.4,201.4,90.1,201.4z M88.1,197.1c1.3,0,2.6,0,3.8,0c-0.1-1.2-1-1.6-1.9-1.6
		C89.1,195.5,88.3,195.9,88.1,197.1z"/>
	<path d="M94.2,200.4l0.4-0.2c0.4-0.2,0.6-0.4,0.6-0.6c0-0.9,0-2.1,0-3c0-0.5-0.1-0.6-1.2-1.2v-0.9l1.8-0.2l0.2,0.1v1.4l0.1,0
		c0.3-0.8,1.3-1.6,2.4-1.6c1.3,0,2.4,1,2.4,2.8c0,0.4,0,1.6,0,2.6c0,0.3,0.1,0.4,0.6,0.6l0.4,0.2l0,0.8c-0.5,0-0.9,0-1.6,0
		c-0.7,0-1.1,0-1.5,0v-0.8l0.5-0.2c0.6-0.3,0.6-0.7,0.6-1.1c0-0.8,0-1.6,0-2c-0.1-1.3-0.9-1.4-1.6-1.4c-1.2,0-1.7,0.4-1.8,1.5
		c0,0.9,0,1.3,0,1.9c0,0.4-0.1,0.8,0.6,1.1l0.5,0.2v0.8c-0.5,0-1,0-1.7,0c-0.8,0-1.1,0-1.5,0L94.2,200.4z"/>
	<path d="M105.8,196.3c0-2.9,1.9-5.1,4.3-5.1c2.3,0,4.3,2.1,4.3,5.1c0,2.9-2,5.1-4.3,5.1C107.7,201.4,105.8,199.3,105.8,196.3z
		 M113.1,196.5c0-2.5-1.3-3.8-3.2-3.8c-1.8,0-2.8,1.3-2.8,3.4c0,2.5,1.2,3.8,3.2,3.8C112.1,199.9,113.1,198.6,113.1,196.5z"/>
	<path d="M121,200.6c0-0.2,0-0.8,0.1-1.1l-0.1,0c-0.4,1.2-1.6,2-2.6,2c-1.4,0-2.7-1.5-2.7-3.5c0-2,1.3-3.8,3-3.8
		c0.9,0,1.7,0.4,2.1,1.3l0.1,0l0-2.7c0-0.5-0.1-0.6-1.5-1V191c0.7,0,2,0,2.7-0.2l0.2,0.1c-0.1,1.9-0.1,3.9-0.1,5.3v3.2
		c0,0.3,0.1,0.4,0.7,0.7l0.4,0.3l0,0.8c-0.4,0-0.8,0-1.2,0c-0.4,0-0.7,0-0.9,0V200.6z M118.7,195.6c-1.2,0-1.9,0.7-1.9,2.1
		c0,1.6,0.8,2.4,1.9,2.4c1.3,0,2.2-1,2.2-2.5C120.8,196.4,120,195.6,118.7,195.6z"/>
	<path d="M127.1,201.4c-1.8,0-3.1-1.4-3.1-3.6c0-2.2,1.4-3.7,3.2-3.7c1.7,0,3.1,1.6,2.7,4h-4.8c0.2,1.4,1.2,2,2.1,2
		c0.9,0,1.5-0.3,1.9-0.9l0.7,0.3C129.4,200.7,128.4,201.4,127.1,201.4z M125.1,197.1c1.3,0,2.6,0,3.8,0c-0.1-1.2-1-1.6-1.9-1.6
		C126.1,195.5,125.3,195.9,125.1,197.1z"/>
	<path d="M131.2,200.4l0.4-0.2c0.4-0.2,0.6-0.4,0.6-0.6c0-0.9,0-2,0-3c0-0.5-0.1-0.6-1.2-1.2v-0.9l1.8-0.2l0.2,0.1v1.4l0.1,0
		c0.3-0.8,1.2-1.6,2.2-1.6c1.1,0,1.9,0.6,2,1.7h0.1c0.3-1,1.3-1.7,2.4-1.7c1.2,0,2.3,1,2.3,2.8c0,0.5,0,1.7,0,2.6
		c0,0.3,0.1,0.4,0.6,0.6l0.4,0.2l0,0.8c-0.5,0-1.1,0-1.6,0c-0.6,0-1.1,0-1.5,0v-0.8l0.5-0.2c0.6-0.3,0.6-0.9,0.6-1.4
		c0-0.7,0-1.3,0-1.7c-0.1-1.2-0.8-1.4-1.5-1.4c-1.1,0-1.7,0.4-1.7,1.5l0,1.6c0,0.6,0,1.2,0.6,1.4l0.5,0.2v0.8c-0.5,0-1.1,0-1.7,0
		c-0.6,0-1.1,0-1.5,0v-0.8l0.4-0.2c0.6-0.3,0.6-0.9,0.6-1.4c0-0.6,0-1.3,0-1.7c-0.1-1.3-0.8-1.5-1.5-1.5c-1.1,0-1.6,0.4-1.7,1.5
		c0,0.9,0,1,0,1.6c0,0.6,0,1.1,0.6,1.4l0.5,0.2v0.8c-0.5,0-1.1,0-1.7,0c-0.6,0-1.1,0-1.5,0L131.2,200.4z"/>
	<path d="M144,201.2l-0.1-0.8l4.1-4.8c-0.6,0-1.4,0-2.3,0c-0.4,0-0.5,0-0.5,0.4l-0.2,0.9l-0.8,0l0-2.6l1.8,0.1h3.5l0.1,1.1l-4,4.5
		c0.7,0,1.7,0,2.6,0c0.3,0,0.3,0,0.4-0.3l0.2-1.1l0.8,0v2.6C148.4,201.2,144.7,201.2,144,201.2z"/>
	<path d="M156.3,201.3c0-0.5,0-1.1,0-1.5l-0.1,0c-0.3,0.8-1.3,1.6-2.3,1.6c-1.3,0-2.2-1-2.2-2.5c0-1.3,0-1.6,0-2.4
		c0-0.5,0-0.6-1.1-1.1v-0.9l2.2-0.1l0.2,0.1c-0.1,1.1-0.2,2.7-0.1,4.2c0,1,0.5,1.3,1.3,1.3c1,0,1.8-0.4,1.9-1.6c0-0.5,0-1,0-1.9
		c0-0.5-0.1-0.7-1.3-1.1v-0.9l2.3-0.1l0.2,0.1c0,1.1,0,3.9,0,5c0,0.3,0.1,0.5,0.6,0.8l0.4,0.3l0,0.8L156.3,201.3z"/>
	<path d="M161.9,204.5c-1.7,0-3.1-0.8-3.1-1.9c0-0.7,0.5-1.4,1.3-1.8c-0.3-0.2-0.4-0.4-0.4-0.7c0-0.4,0.3-0.8,0.8-1.2
		c-0.8-0.4-1.3-1.3-1.3-2.1c0-1.3,1.1-2.6,2.9-2.6c0.9,0,1.5,0.2,3.1,0c0,0.4,0,0.8,0,1.3l-1.4-0.1c0.7,0.4,0.8,1,0.8,1.6
		c0,1.1-1,2.3-2.5,2.3c-0.5,0-0.7,0-0.8,0c-0.5,0.5-0.5,1,0.1,1l1.7,0c1.3,0,2.1,0.7,2.1,1.9C165.4,203.7,163.6,204.5,161.9,204.5z
		 M164.3,202.3c0-0.6-0.4-0.8-1.4-0.9l-1.4-0.1c-0.9,0-1.5,0.5-1.5,1.1c0,0.6,0.7,1,2,1C163.2,203.5,164.3,203.1,164.3,202.3z
		 M163.5,197c0-0.4-0.2-0.9-0.4-1.1c-0.3-0.2-0.7-0.4-1.2-0.4c-1,0-1.5,0.6-1.5,1.4c0,1,0.9,1.4,1.7,1.4
		C162.9,198.2,163.5,197.8,163.5,197z"/>
	<path d="M169.5,201.4c-1.8,0-3.1-1.4-3.1-3.6c0-2.2,1.4-3.7,3.2-3.7c1.7,0,3.1,1.6,2.7,4h-4.8c0.2,1.4,1.2,2,2.1,2
		c0.9,0,1.5-0.3,1.9-0.9l0.7,0.3C171.8,200.7,170.8,201.4,169.5,201.4z M167.5,197.1c1.3,0,2.6,0,3.8,0c-0.1-1.2-1-1.6-1.9-1.6
		C168.5,195.5,167.7,195.9,167.5,197.1z"/>
	<path d="M176.7,201.2l-0.1-0.8l0.4-0.2c0.5-0.2,0.6-0.4,0.6-0.6c0-0.8,0-2.1,0-3.1c0-0.5,0-0.6-1.1-1.1v-0.9l2.1-0.2l0.2,0.2
		c-0.1,1.2-0.1,4.2-0.1,5.2c0,0.3,0,0.4,0.6,0.6l0.5,0.2l0,0.8c-0.6,0-0.9,0-1.6,0C177.3,201.1,177.1,201.2,176.7,201.2z
		 M177.2,191.7c0-0.5,0.4-0.9,1-0.9c0.6,0,1,0.4,1,0.9c0,0.5-0.4,0.9-1,0.9C177.6,192.7,177.2,192.3,177.2,191.7z"/>
	<path d="M181.2,199.1l0.9,0c0.2,0.7,0.7,1.1,1.7,1.1c0.9,0,1.3-0.4,1.3-0.9c0-0.6-0.6-0.9-1.7-1.1c-1.5-0.3-2.3-0.8-2.3-2
		c0-1.5,1.2-2.1,2.4-2.1c0.5,0,1,0.1,1.4,0.4h0l0.8-0.2l0.2,0.1l-0.1,1.9l-0.8,0c-0.3-0.7-0.8-1-1.6-1c-0.9,0-1.2,0.4-1.2,0.8
		c0,0.4,0.2,0.7,1.5,1c1.5,0.3,2.4,0.9,2.4,2.1c0,1.3-1,2.1-2.4,2.1c-0.8,0-1.2-0.2-1.6-0.5h0l-0.8,0.3l-0.3-0.2L181.2,199.1z"/>
	<path d="M189.8,201.4c-1.4,0-1.6-0.9-1.6-2.5c0-0.6,0-2.3,0.1-3.2l-1.1,0v-1.1l0.5-0.1c0.6-0.1,0.7-0.3,0.8-1.2l0.1-1.1
		c0.3,0,0.6,0,0.9,0l-0.1,2.3l1.9,0c0,0.3,0,1,0,1.3l-2,0c-0.1,1.1-0.1,2.2-0.1,3.3c0,0.8,0.2,1.1,0.9,1.1c0.5,0,0.9-0.2,1.3-0.3
		l0.1,0.8C191.2,201,190.7,201.4,189.8,201.4z"/>
	<path d="M200,199.9L200,199.9c-0.5,0.9-1.5,1.4-2.4,1.4c-1.2,0-2.1-0.9-2.1-2.1c0-1.2,1-2.1,3-2.1c0.5,0,0.9,0,1.3,0.1v-0.4
		c0-0.9-0.7-1.3-1.7-1.3c-1.1,0-1.6,0.5-1.9,0.9l-0.6-0.5c0.4-1.1,1.6-1.8,2.8-1.8c1.3,0,2.5,0.9,2.5,2.7l0,2.7
		c0,0.3,0.1,0.4,0.7,0.6l0.5,0.2l0,0.8l-2,0.1C200,200.6,200,200.3,200,199.9z M197.9,200c0.9,0,1.9-0.6,1.9-1.4v-0.3
		c-0.5-0.1-1.1-0.2-1.6-0.2c-0.9,0-1.6,0.2-1.6,0.9C196.7,199.7,197.2,200,197.9,200z"/>
	<path d="M202.6,200.4l0.4-0.2c0.4-0.2,0.6-0.4,0.6-0.6c0-1.2,0.1-5,0-6.9c0-0.3-0.2-0.5-1.4-0.9V191c0.7,0,1.8,0,2.5-0.2l0.2,0.1
		c0,0.7-0.2,2.2-0.2,4.8v3.9c0,0.3,0.1,0.4,0.6,0.6l0.5,0.2l0,0.8c-0.5,0-0.9,0-1.6,0c-0.7,0-1.1,0-1.5,0L202.6,200.4z"/>
	<path d="M206.5,200.4l0.4-0.2c0.4-0.2,0.6-0.4,0.6-0.6c0-1.2,0.1-5,0-6.9c0-0.3-0.2-0.5-1.4-0.9V191c0.7,0,1.8,0,2.5-0.2l0.2,0.1
		c0,0.7-0.2,2.2-0.2,4.8v3.9c0,0.3,0.1,0.4,0.6,0.6l0.5,0.2l0,0.8c-0.5,0-0.9,0-1.6,0c-0.7,0-1.1,0-1.5,0L206.5,200.4z"/>
	<path d="M213.8,201.4c-1.8,0-3.1-1.4-3.1-3.6c0-2.2,1.4-3.7,3.2-3.7c1.7,0,3.1,1.6,2.7,4h-4.8c0.2,1.4,1.2,2,2.1,2
		c0.9,0,1.5-0.3,1.9-0.9l0.7,0.3C216.1,200.7,215.1,201.4,213.8,201.4z M211.8,197.1c1.3,0,2.6,0,3.8,0c-0.1-1.2-1-1.6-1.9-1.6
		C212.8,195.5,212,195.9,211.8,197.1z"/>
	<path d="M218.1,199.1l0.9,0c0.2,0.7,0.7,1.1,1.7,1.1c0.9,0,1.3-0.4,1.3-0.9c0-0.6-0.6-0.9-1.7-1.1c-1.5-0.3-2.3-0.8-2.3-2
		c0-1.5,1.2-2.1,2.4-2.1c0.5,0,1,0.1,1.4,0.4h0l0.8-0.2l0.2,0.1l-0.1,1.9l-0.8,0c-0.3-0.7-0.8-1-1.6-1c-0.9,0-1.2,0.4-1.2,0.8
		c0,0.4,0.2,0.7,1.5,1c1.5,0.3,2.4,0.9,2.4,2.1c0,1.3-1,2.1-2.4,2.1c-0.8,0-1.2-0.2-1.6-0.5h0l-0.8,0.3l-0.3-0.2L218.1,199.1z"/>
	<path d="M227.9,196.2c-0.2-0.5-0.4-0.6-0.6-0.7l-0.4-0.2l0.1-0.9c0.3,0,0.9,0,1.5,0c0.5,0,1.2,0,1.7,0v0.9l-0.4,0.2
		c-0.6,0.3-0.7,0.5-0.5,0.9c0.5,1.2,1.1,2.9,1.3,3.2h0.3c0.2-0.3,0.9-2,1.4-3.2c0.2-0.4,0-0.6-0.5-0.9l-0.4-0.2v-0.9
		c0.5,0,1.2,0,1.7,0c0.6,0,1,0,1.4,0l0.1,0.9l-0.4,0.2c-0.2,0.1-0.3,0.2-0.6,0.7l-2.2,5H230L227.9,196.2z"/>
	<path d="M235,197.8c0-2.1,1.5-3.6,3.3-3.6c1.7,0,3.2,1.5,3.2,3.6c0,2.1-1.5,3.6-3.3,3.6C236.5,201.4,235,200,235,197.8z M240.3,198
		c0-1.5-0.9-2.5-2.2-2.5c-1.4,0-1.9,0.8-1.9,2.1c0,1.5,0.9,2.5,2.2,2.5C239.7,200.1,240.3,199.3,240.3,198z"/>
	<path d="M242.6,200.4l0.4-0.2c0.4-0.2,0.6-0.4,0.6-0.6c0-1.1,0-2.1,0-3c0-0.5-0.1-0.6-1.2-1.2v-0.9l1.8-0.2l0.2,0.1l0.1,1.7l0.1,0
		c0.3-1.1,1.1-1.9,2.1-1.9c0.2,0,0.5,0.1,0.6,0.1c0,0.5-0.1,1.1-0.2,1.6c-1.8-0.3-2.4,0.4-2.4,2.1v0.8c0,0.6,0,1.2,0.8,1.5l0.5,0.2
		l0,0.8c-0.6,0-1,0-1.9,0c-0.7,0-1.1,0-1.5,0L242.6,200.4z"/>
	<path d="M248.5,201.3c0.1-0.4,0.2-1.2,0.2-1.7c0-4,0-6,0-6.8c0-0.4-0.1-0.5-1.2-0.9V191c0.7,0,1.7-0.1,2.4-0.2l0.2,0.1l-0.1,2.7
		c-0.1,1.1,0,1.4-0.2,2.4l0.1,0c0.3-1.1,1.4-1.8,2.4-1.8c1.4,0,2.8,1.5,2.8,3.5c0,2.1-1.5,3.8-3.1,3.8c-0.9,0-1.5-0.6-1.9-1.3h-0.1
		l-0.8,1.3L248.5,201.3z M253.8,197.7c0-1.5-0.9-2.1-1.9-2.1c-1.2,0-2.2,1-2.2,2.2c0,1.3,1,2.2,2.2,2.2
		C253.1,200.1,253.8,199.2,253.8,197.7z"/>
	<path d="M259.3,201.4c-1.8,0-3.1-1.4-3.1-3.6c0-2.2,1.4-3.7,3.2-3.7c1.7,0,3.1,1.6,2.7,4h-4.8c0.2,1.4,1.2,2,2.1,2
		c0.9,0,1.5-0.3,1.9-0.9l0.7,0.3C261.5,200.7,260.6,201.4,259.3,201.4z M257.2,197.1c1.3,0,2.6,0,3.8,0c-0.1-1.2-1-1.6-1.9-1.6
		C258.2,195.5,257.5,195.9,257.2,197.1z"/>
	<path d="M263.4,201.2l-0.1-0.8l0.4-0.2c0.5-0.2,0.6-0.4,0.6-0.6c0-0.8,0-2.1,0-3.1c0-0.5,0-0.6-1.1-1.1v-0.9l2.1-0.2l0.2,0.2
		c-0.1,1.2-0.1,4.2-0.1,5.2c0,0.3,0,0.4,0.6,0.6l0.5,0.2l0,0.8c-0.6,0-0.9,0-1.6,0C264.1,201.1,263.8,201.2,263.4,201.2z M264,191.7
		c0-0.5,0.4-0.9,1-0.9c0.6,0,1,0.4,1,0.9c0,0.5-0.4,0.9-1,0.9C264.4,192.7,264,192.3,264,191.7z"/>
	<path d="M268.1,200.4c0-0.6,0.3-1.1,1.1-1.1c0.8,0,1.3,0.6,1.3,1.7c0,1.3-0.7,2.4-2.4,2.7l-0.1-1.2c1-0.1,1.6-0.6,1.6-1.3
		C268.5,201.5,268.1,200.9,268.1,200.4z"/>
	<path d="M274.6,200.4l0.6-0.2c0.6-0.2,1-0.5,1-1v-5.7c0-0.5-0.3-0.7-1-1l-0.6-0.2l0.1-0.8h6.1l0.9-0.1c0,0.9,0,2.2,0.1,3.1
		l-0.9,0.1l-0.2-1.1c-0.1-0.5-0.3-0.6-0.9-0.7l-2.5,0v3.2l3.2-0.1v1.4l-3.2-0.1v2c0,0.5,0.3,0.8,1,1l0.7,0.2l-0.1,0.8
		c-0.4,0-1.5,0-2.2,0c-0.6,0-1.7,0-2.1,0L274.6,200.4z"/>
	<path d="M282.8,200.4l0.4-0.2c0.4-0.2,0.6-0.4,0.6-0.6c0-1.1,0-2.1,0-3c0-0.5-0.1-0.6-1.2-1.2v-0.9l1.8-0.2l0.2,0.1l0.1,1.7l0.1,0
		c0.3-1.1,1.1-1.9,2.1-1.9c0.2,0,0.5,0.1,0.6,0.1c0,0.5-0.1,1.1-0.2,1.6c-1.8-0.3-2.4,0.4-2.4,2.1v0.8c0,0.6,0,1.2,0.8,1.5l0.5,0.2
		l0,0.8c-0.6,0-1,0-1.9,0c-0.7,0-1.1,0-1.5,0L282.8,200.4z"/>
	<path d="M291.4,201.4c-1.8,0-3.1-1.4-3.1-3.6c0-2.2,1.4-3.7,3.2-3.7c1.7,0,3.1,1.6,2.7,4h-4.8c0.2,1.4,1.2,2,2.1,2
		c0.9,0,1.5-0.3,1.9-0.9l0.7,0.3C293.7,200.7,292.7,201.4,291.4,201.4z M289.4,197.1c1.3,0,2.6,0,3.8,0c-0.1-1.2-1-1.6-1.9-1.6
		C290.4,195.5,289.6,195.9,289.4,197.1z"/>
	<path d="M300.8,201.3c0-0.5,0-1.1,0-1.5l-0.1,0c-0.3,0.8-1.3,1.6-2.3,1.6c-1.3,0-2.2-1-2.2-2.5c0-1.3,0-1.6,0-2.4
		c0-0.5,0-0.6-1.1-1.1v-0.9l2.2-0.1l0.2,0.1c-0.1,1.1-0.2,2.7-0.1,4.2c0,1,0.5,1.3,1.3,1.3c1,0,1.8-0.4,1.9-1.6c0-0.5,0-1,0-1.9
		c0-0.5-0.1-0.7-1.3-1.1v-0.9l2.3-0.1l0.2,0.1c0,1.1,0,3.9,0,5c0,0.3,0.1,0.5,0.6,0.8l0.4,0.3l0,0.8L300.8,201.3z"/>
	<path d="M309,200.6c0-0.2,0-0.8,0.1-1.1l-0.1,0c-0.4,1.2-1.6,2-2.6,2c-1.4,0-2.7-1.5-2.7-3.5c0-2,1.3-3.8,3-3.8
		c0.9,0,1.7,0.4,2.1,1.3l0.1,0l0-2.7c0-0.5-0.1-0.6-1.5-1V191c0.7,0,2,0,2.7-0.2l0.2,0.1c-0.1,1.9-0.1,3.9-0.1,5.3v3.2
		c0,0.3,0.1,0.4,0.7,0.7l0.4,0.3l0,0.8c-0.4,0-0.8,0-1.2,0c-0.4,0-0.7,0-0.9,0V200.6z M306.7,195.6c-1.2,0-1.9,0.7-1.9,2.1
		c0,1.6,0.8,2.4,1.9,2.4c1.3,0,2.2-1,2.2-2.5C308.8,196.4,308,195.6,306.7,195.6z"/>
	<path d="M315.1,201.4c-1.8,0-3.1-1.4-3.1-3.6c0-2.2,1.4-3.7,3.2-3.7c1.7,0,3.1,1.6,2.7,4h-4.8c0.2,1.4,1.2,2,2.1,2
		c0.9,0,1.5-0.3,1.9-0.9l0.7,0.3C317.4,200.7,316.4,201.4,315.1,201.4z M313.1,197.1c1.3,0,2.6,0,3.8,0c-0.1-1.2-1-1.6-1.9-1.6
		C314.1,195.5,313.3,195.9,313.1,197.1z"/>
	<path d="M319.3,200.4c0-0.6,0.3-1.1,1.1-1.1c0.8,0,1.3,0.6,1.3,1.7c0,1.3-0.7,2.4-2.4,2.7l-0.1-1.2c1-0.1,1.6-0.6,1.6-1.3
		C319.7,201.5,319.3,200.9,319.3,200.4z"/>
	<path d="M325.9,200.4l0.6-0.2c0.6-0.2,1-0.5,1-1v-5.7c0-0.5-0.3-0.8-1-1l-0.6-0.2l0.1-0.8c0.4,0,1.4,0,2.1,0c0.7,0,1.7,0,2.1,0
		l0.1,0.8l-0.6,0.2c-0.6,0.2-0.9,0.5-0.9,1v6.5l2.7,0c0.5,0,0.6-0.1,0.7-0.6l0.2-1.6h0.9c0,1.2,0,2.6,0.1,3.5H326L325.9,200.4z"/>
	<path d="M334.4,201.2l-0.1-0.8l0.4-0.2c0.5-0.2,0.6-0.4,0.6-0.6c0-0.8,0-2.1,0-3.1c0-0.5,0-0.6-1.1-1.1v-0.9l2.1-0.2l0.2,0.2
		c-0.1,1.2-0.1,4.2-0.1,5.2c0,0.3,0,0.4,0.6,0.6l0.5,0.2l0,0.8c-0.6,0-0.9,0-1.6,0C335.1,201.1,334.8,201.2,334.4,201.2z
		 M334.9,191.7c0-0.5,0.4-0.9,1-0.9c0.6,0,1,0.4,1,0.9c0,0.5-0.4,0.9-1,0.9C335.4,192.7,334.9,192.3,334.9,191.7z"/>
	<path d="M341.8,201.4c-1.8,0-3.1-1.4-3.1-3.6c0-2.2,1.4-3.7,3.2-3.7c1.7,0,3.1,1.6,2.7,4h-4.8c0.2,1.4,1.2,2,2.1,2
		c0.9,0,1.5-0.3,1.9-0.9l0.7,0.3C344,200.7,343.1,201.4,341.8,201.4z M339.7,197.1c1.3,0,2.6,0,3.8,0c-0.1-1.2-1-1.6-1.9-1.6
		C340.7,195.5,339.9,195.9,339.7,197.1z"/>
	<path d="M346.3,201.3c0.1-0.4,0.2-1.2,0.2-1.7c0-4,0-6,0-6.8c0-0.4-0.1-0.5-1.2-0.9V191c0.7,0,1.7-0.1,2.4-0.2l0.2,0.1l-0.1,2.7
		c-0.1,1.1,0,1.4-0.2,2.4l0.1,0c0.3-1.1,1.4-1.8,2.4-1.8c1.4,0,2.8,1.5,2.8,3.5c0,2.1-1.5,3.8-3.1,3.8c-0.9,0-1.5-0.6-1.9-1.3h-0.1
		l-0.8,1.3L346.3,201.3z M351.6,197.7c0-1.5-0.9-2.1-1.9-2.1c-1.2,0-2.2,1-2.2,2.2c0,1.3,1,2.2,2.2,2.2
		C350.9,200.1,351.6,199.2,351.6,197.7z"/>
	<path d="M357,201.4c-1.8,0-3.1-1.4-3.1-3.6c0-2.2,1.4-3.7,3.2-3.7c1.7,0,3.1,1.6,2.7,4H355c0.2,1.4,1.2,2,2.1,2
		c0.9,0,1.5-0.3,1.9-0.9l0.7,0.3C359.3,200.7,358.4,201.4,357,201.4z M355,197.1c1.3,0,2.6,0,3.8,0c-0.1-1.2-1-1.6-1.9-1.6
		C356,195.5,355.2,195.9,355,197.1z"/>
	<path d="M361.3,200.4c0-0.6,0.3-1.1,1.1-1.1c0.8,0,1.3,0.6,1.3,1.7c0,1.3-0.7,2.4-2.4,2.7l-0.1-1.2c1-0.1,1.6-0.6,1.6-1.3
		C361.7,201.5,361.3,200.9,361.3,200.4z"/>
	<path d="M375.5,201.2c-0.5,0-1.8,0-2.3,0v-0.8l0.6-0.2c0.6-0.2,1.1-0.5,0.9-1l-0.4-1.4c-1.2,0-2.4,0-3.5,0l-0.5,1.4
		c-0.2,0.5,0.3,0.8,1,1l0.6,0.2v0.8c-0.5,0-1.8,0-2.4,0c-0.7,0-1.7,0-2.1,0l-0.1-0.8l0.6-0.2c0.6-0.3,0.9-0.5,1.1-1l2.1-5.6
		c0.3-0.8,0-0.9-0.8-1.2l-0.5-0.2l0.1-0.8h3.6l2.6,7.8c0.2,0.6,0.3,0.7,1,1l0.6,0.2l-0.1,0.8C377.2,201.2,376.2,201.2,375.5,201.2z
		 M369.9,189.7c0-0.5,0.4-0.9,0.9-0.9c0.6,0,0.9,0.4,0.9,0.9c0,0.5-0.4,0.9-0.9,0.9C370.3,190.6,369.9,190.2,369.9,189.7z
		 M371.2,196.6c0.9,0,1.8,0,2.7,0l-1.2-3.7h-0.3L371.2,196.6z M373,189.7c0-0.5,0.4-0.9,0.9-0.9c0.6,0,0.9,0.4,0.9,0.9
		c0,0.5-0.3,0.9-0.9,0.9C373.4,190.6,373,190.2,373,189.7z"/>
	<path d="M378.1,200.4l0.4-0.2c0.4-0.2,0.6-0.4,0.6-0.6c0-1.1,0-2.1,0-3c0-0.5-0.1-0.6-1.2-1.2v-0.9l1.8-0.2l0.2,0.1l0.1,1.7l0.1,0
		c0.3-1.1,1.1-1.9,2.1-1.9c0.2,0,0.5,0.1,0.6,0.1c0,0.5-0.1,1.1-0.2,1.6c-1.8-0.3-2.4,0.4-2.4,2.1v0.8c0,0.6,0,1.2,0.8,1.5l0.5,0.2
		l0,0.8c-0.6,0-1,0-1.9,0c-0.7,0-1.1,0-1.5,0L378.1,200.4z"/>
	<path d="M386.4,204.5c-1.7,0-3.1-0.8-3.1-1.9c0-0.7,0.5-1.4,1.3-1.8c-0.3-0.2-0.4-0.4-0.4-0.7c0-0.4,0.3-0.8,0.8-1.2
		c-0.8-0.4-1.3-1.3-1.3-2.1c0-1.3,1.1-2.6,2.9-2.6c0.9,0,1.5,0.2,3.1,0c0,0.4,0,0.8,0,1.3l-1.4-0.1c0.7,0.4,0.8,1,0.8,1.6
		c0,1.1-1,2.3-2.5,2.3c-0.5,0-0.7,0-0.8,0c-0.5,0.5-0.5,1,0.1,1l1.7,0c1.3,0,2.1,0.7,2.1,1.9C389.9,203.7,388.1,204.5,386.4,204.5z
		 M388.8,202.3c0-0.6-0.4-0.8-1.4-0.9l-1.4-0.1c-0.9,0-1.5,0.5-1.5,1.1c0,0.6,0.7,1,2,1C387.8,203.5,388.8,203.1,388.8,202.3z
		 M388,197c0-0.4-0.2-0.9-0.4-1.1c-0.3-0.2-0.7-0.4-1.2-0.4c-1,0-1.5,0.6-1.5,1.4c0,1,0.9,1.4,1.7,1.4
		C387.4,198.2,388,197.8,388,197z"/>
	<path d="M394,201.4c-1.8,0-3.1-1.4-3.1-3.6c0-2.2,1.4-3.7,3.2-3.7c1.7,0,3.1,1.6,2.7,4H392c0.2,1.4,1.2,2,2.1,2
		c0.9,0,1.5-0.3,1.9-0.9l0.7,0.3C396.3,200.7,395.3,201.4,394,201.4z M392,197.1c1.3,0,2.6,0,3.8,0c-0.1-1.2-1-1.6-1.9-1.6
		C393,195.5,392.2,195.9,392,197.1z"/>
	<path d="M398.1,200.4l0.4-0.2c0.4-0.2,0.6-0.4,0.6-0.6c0-1.1,0-2.1,0-3c0-0.5-0.1-0.6-1.2-1.2v-0.9l1.8-0.2l0.2,0.1l0.1,1.7l0.1,0
		c0.3-1.1,1.1-1.9,2.1-1.9c0.2,0,0.5,0.1,0.6,0.1c0,0.5-0.1,1.1-0.2,1.6c-1.8-0.3-2.4,0.4-2.4,2.1v0.8c0,0.6,0,1.2,0.8,1.5l0.5,0.2
		l0,0.8c-0.6,0-1,0-1.9,0c-0.7,0-1.1,0-1.5,0L398.1,200.4z"/>
	<path d="M403.3,200.4c0-0.6,0.3-1.1,1.1-1.1c0.8,0,1.3,0.6,1.3,1.7c0,1.3-0.7,2.4-2.4,2.7l-0.1-1.2c1-0.1,1.6-0.6,1.6-1.3
		C403.8,201.5,403.3,200.9,403.3,200.4z"/>
	<path d="M5.6,217.9c-0.1-1.1-1-1.6-2.3-2.1l-1.6-0.7l0.4-2.6c1.1,0,4.1,0.1,6,0.1c1.5,0,6-0.1,7.4-0.1l-0.2,2.8l-1.9,0.5
		c-2,0.5-3.8,1.8-3.6,4l1.6,18.9H12l11-19.8c0.7-1.3-0.4-2.6-2-3.1l-1.7-0.5l0.2-2.8c1.4,0,6.5,0.1,8.1,0.1c1.7,0,4.2-0.1,5.1-0.1
		v2.6l-1.9,0.7c-1.8,0.7-2.6,1.1-4.7,4.6l-14.3,24.7H8.3L5.6,217.9z"/>
	<path d="M28.1,237c-0.3-9.1,5.8-15.5,11.3-15.5c3.1,0,6.9,2,6.9,6.3c0,4-2.6,8.9-14.6,7.9c-0.1,3.6,1.6,5.8,5.2,5.8
		c2.5,0,5.2-1.3,6.6-3.2l1.6,1.4c-1.3,3.2-4.6,6.2-8.9,6.2C32.3,245.8,28.3,243.2,28.1,237z M32,232.9c6.5,0.1,10.7-1.6,10.5-4.5
		c-0.1-1.6-1.7-2.6-3.6-2.6C36,225.7,32.9,228.1,32,232.9z"/>
	<path d="M50.1,225.3l0.2-2.9c1.6,0,3.4,0,6.9-0.6l0.5,0.4l-1.1,6.3l0.2,0.1c2-4.8,4-7,6.8-7c1,0,1.9,0.4,2.6,0.8
		c-0.3,1.5-0.9,3.4-1.4,4.8c-1.1-0.3-1.6-0.5-3-0.5c-2.6,0-5.5,4.6-6.1,11.2l-0.6,7.4c-5.7,0.4-6-0.6-4.8-3.3l2.3-5.2l1.3-9.5
		L50.1,225.3z"/>
	<path d="M64.7,242.2c0.3-0.8,1-2.4,1.6-3.5c2.1,2.1,3.7,3.1,6,3.1c2,0,3.8-0.9,3.8-2.7c0-1.4-0.8-2.3-3.3-4.3
		c-3.1-2.4-4.2-4.3-4.3-6.4c-0.2-3.9,3.3-7,7.8-7c2.9,0,5.9,1.3,6.9,2c-0.6,1.6-1.4,3.3-2.2,4.7c-1.6-1.2-4-2.5-5.8-2.5
		c-1.9,0-3,1.5-2.9,2.9c0.1,1.3,1.1,2.3,3.1,3.9c3,2.4,4.5,4.1,4.6,6.8c0.2,4.2-3.5,6.7-7.2,6.7C69.4,245.8,66.4,244.4,64.7,242.2z"
		/>
	<path d="M84.7,237c-0.3-9.1,5.8-15.5,11.3-15.5c3.1,0,6.9,2,6.9,6.3c0,4-2.6,8.9-14.6,7.9c-0.1,3.6,1.6,5.8,5.2,5.8
		c2.5,0,5.2-1.3,6.6-3.2l1.6,1.4c-1.3,3.2-4.6,6.2-8.9,6.2C88.9,245.8,84.9,243.2,84.7,237z M88.6,232.9c6.5,0.1,10.7-1.6,10.5-4.5
		c-0.1-1.6-1.7-2.6-3.6-2.6C92.6,225.7,89.5,228.1,88.6,232.9z"/>
	<path d="M114.1,242.6l1.9-0.7c2-0.7,2.9-1.5,3.3-3.3l3.9-19.5c0.3-1.5-0.5-2.5-2.2-3.3l-1.6-0.7l0.4-2.6h11.8c7,0,9.6,3.9,9.6,9.1
		c0,5.7-5,11.9-12.2,11.9c-2.5,0-3.8-0.3-4.8-0.6l-1.1,5.7c-0.4,2.1,0.7,2.8,2.5,3.3l1.7,0.5l-0.2,2.8c-1.4,0-5.5-0.1-6.9-0.1
		c-1.9,0-4.9,0.1-6,0.1V242.6z M130.1,229.2c5,0,7.3-4.1,7.3-7.5c0-2.8-1.7-4.6-5.2-4.6h-4.8l-2.3,11.5
		C126.2,229,128.5,229.2,130.1,229.2z"/>
	<path d="M147.5,245.8c-3.1,0-5.8-2.3-6-8.3c-0.3-8.6,5.8-16.1,10.9-16.1c2.5,0,4.5,1.9,5.6,4c1.1-1.3,1.7-2.3,2.6-3.9l2.3,0.7
		c-0.8,2.7-2.1,7.4-2.9,10.4c-0.6,2.7-1.4,6.4-1,7.7c0.3,0.8,1,1,3,0.7l1.2-0.2l-0.2,2.9c-1,1.1-2.5,1.9-4.3,1.9
		c-3.7,0-3.6-3.1-3-7.9l-0.2-0.1C153.4,243.2,150.8,245.8,147.5,245.8z M151.6,225.9c-3.5,0-6.6,4.8-6.4,10.5
		c0.1,2.6,1.1,4.9,3.6,4.9c3.4,0,7.9-8.3,7.9-11.3C156.7,228.5,154.3,225.9,151.6,225.9z"/>
	<path d="M167,225.3l0.2-2.9c1.6,0,4.2,0,7.7-0.6l0.5,0.4l-1.8,6.7l0.2,0.1c2.2-4.7,5.1-7.6,9-7.6c4,0,7,2.8,3.8,11.2l-2.3,6
		c-0.8,2-0.1,2.9,3.1,2.5l1.2-0.2l-0.2,2.9c-0.9,1.1-2.9,1.9-4.6,1.9c-2.3,0-4.9-1.6-3.3-5.9l2-5.2c1.9-5.1,2.3-8.5-1.7-8.5
		c-3.2,0-6.9,1.9-8.1,12.3l-0.8,6.8c-5.7,0.4-6.2-0.5-5-3.2l2.8-6.2l1.3-8.6L167,225.3z"/>
	<path d="M192.9,225.3l0.2-2.9c1.6,0,4.2,0,7.7-0.6l0.5,0.4l-1.8,6.7l0.2,0.1c2.2-4.7,5.1-7.6,9-7.6c4,0,7,2.8,3.8,11.2l-2.3,6
		c-0.8,2-0.1,2.9,3.1,2.5l1.2-0.2l-0.2,2.9c-0.9,1.1-2.9,1.9-4.6,1.9c-2.3,0-4.9-1.6-3.3-5.9l2-5.2c1.9-5.1,2.3-8.5-1.7-8.5
		c-3.2,0-6.9,1.9-8.1,12.3l-0.8,6.8c-5.7,0.4-6.2-0.5-5-3.2l2.8-6.2l1.3-8.6L192.9,225.3z"/>
	<path d="M218.1,237c-0.3-9.1,5.8-15.5,11.3-15.5c3.1,0,6.9,2,6.9,6.3c0,4-2.6,8.9-14.6,7.9c-0.1,3.6,1.6,5.8,5.2,5.8
		c2.5,0,5.2-1.3,6.6-3.2l1.6,1.4c-1.3,3.2-4.6,6.2-8.8,6.2C222.3,245.8,218.3,243.2,218.1,237z M222,232.9
		c6.5,0.1,10.7-1.6,10.5-4.5c-0.1-1.6-1.7-2.6-3.6-2.6C226,225.7,222.9,228.1,222,232.9z"/>
	<path d="M240.2,225.3l0.2-2.9c1.6,0,4.2,0,7.7-0.6l0.5,0.4l-1.8,6.7l0.2,0.1c2.2-4.7,5.1-7.6,9-7.6c4,0,7,2.8,3.8,11.2l-2.3,6
		c-0.8,2-0.1,2.9,3.1,2.5l1.2-0.2l-0.2,2.9c-0.9,1.1-2.9,1.9-4.6,1.9c-2.3,0-4.9-1.6-3.3-5.9l2-5.2c1.9-5.1,2.3-8.5-1.7-8.5
		c-3.2,0-6.9,1.9-8.1,12.3l-0.8,6.8c-5.7,0.4-6.2-0.5-5-3.2l2.8-6.2l1.3-8.6L240.2,225.3z"/>
	<path d="M273,235.6l0.1-1c4.6-1.5,8.7-3.6,8.7-6.6c0-1.1-0.7-2.4-2.8-2.4c-2.6,0-7.7,3.4-8.7,12.5l-0.8,7.2
		c-5.4,0.4-5.8-0.5-4.7-3.3l2.6-6.5c1.6-6,3.4-17.6,3.8-20.1c-1.3-0.6-2.8-1.1-4.1-1.9l0.2-2.5c2.6,0,6-0.2,8.4-0.7l0.7,0.6
		c-0.8,3.6-3.2,13.4-4.6,17.3l0.2,0.1c3-5.6,6.3-6.5,8.5-6.5c2.7,0,5.1,1.7,5.1,5.4c0,4.1-2.6,6.9-8.9,8.9c2.1,2.1,6.5,5.9,8,7.3
		c-0.4,1-2.9,2.9-4.5,3C277.7,243.2,274.7,238.6,273,235.6z"/>
	<path d="M288.7,237.3c-0.3-9,5.2-15.7,11.4-15.7c4.8,0,7.7,3.7,7.9,8.6c0.3,8.9-5.2,15.7-11.3,15.7
		C291.9,246,288.9,242.5,288.7,237.3z M304.4,232.7c0.2-3.9-1.7-6.6-5.4-6.6c-3.8,0-6.5,3.4-6.7,8.8c-0.2,3.9,1.6,6.6,5.5,6.6
		C301.5,241.5,304.3,238.1,304.4,232.7z"/>
	<path d="M311.4,237c-0.3-9.1,5.8-15.5,11.3-15.5c3.1,0,6.9,2,6.9,6.3c0,4-2.6,8.9-14.6,7.9c-0.1,3.6,1.6,5.8,5.2,5.8
		c2.5,0,5.2-1.3,6.6-3.2l1.6,1.4c-1.3,3.2-4.6,6.2-8.8,6.2C315.6,245.8,311.6,243.2,311.4,237z M315.3,232.9
		c6.5,0.1,10.7-1.6,10.5-4.5c-0.1-1.6-1.7-2.6-3.6-2.6C319.3,225.7,316.2,228.1,315.3,232.9z"/>
	<path d="M340.5,235.6l0.1-1c4.6-1.5,8.7-3.6,8.7-6.6c0-1.1-0.7-2.4-2.8-2.4c-2.6,0-7.7,3.4-8.7,12.5l-0.8,7.2
		c-5.4,0.4-5.8-0.5-4.7-3.3l2.6-6.5c1.6-6,3.4-17.6,3.8-20.1c-1.3-0.6-2.8-1.1-4.1-1.9l0.2-2.5c2.6,0,6-0.2,8.4-0.7l0.7,0.6
		c-0.8,3.6-3.2,13.4-4.6,17.3l0.2,0.1c3-5.6,6.3-6.5,8.5-6.5c2.7,0,5.1,1.7,5.1,5.4c0,4.1-2.6,6.9-8.9,8.9c2.1,2.1,6.5,5.9,8,7.3
		c-0.4,1-2.9,2.9-4.5,3C345.1,243.2,342.1,238.6,340.5,235.6z"/>
	<path d="M348,253.3l1.2-2.9c1.3,0.6,2.8,1.2,4.2,1.2c2.2,0,3.3-1.3,4.6-7.4l3.5-17.4l-4.2-1.5l0.2-2.9c1.7,0,4.6,0,8.3-0.6l0.5,0.4
		l-4.2,20.2c-1.5,7.2-3.3,13.5-9.3,13.5C350.5,255.9,348.7,254.8,348,253.3z M362,213.5c0-1.8,1.4-3.2,3.2-3.2c2,0,3.2,1.4,3.2,3.2
		c0,1.9-1.2,3.1-3.2,3.1C363.4,216.6,362,215.4,362,213.5z"/>
	<path d="M369.3,237c-0.3-9.1,5.8-15.5,11.3-15.5c3.1,0,6.9,2,6.9,6.3c0,4-2.6,8.9-14.6,7.9c-0.1,3.6,1.6,5.8,5.2,5.8
		c2.5,0,5.2-1.3,6.6-3.2l1.6,1.4c-1.3,3.2-4.6,6.2-8.8,6.2C373.5,245.8,369.6,243.2,369.3,237z M373.2,232.9
		c6.5,0.1,10.7-1.6,10.5-4.5c-0.1-1.6-1.7-2.6-3.6-2.6C377.2,225.7,374.1,228.1,373.2,232.9z"/>
	<path d="M388.8,242.2c0.3-0.8,1-2.4,1.6-3.5c2.1,2.1,3.7,3.1,6,3.1c2,0,3.8-0.9,3.8-2.7c0-1.4-0.8-2.3-3.3-4.3
		c-3.1-2.4-4.2-4.3-4.3-6.4c-0.2-3.9,3.3-7,7.8-7c2.9,0,5.9,1.3,6.9,2c-0.6,1.6-1.4,3.3-2.2,4.7c-1.6-1.2-4-2.5-5.8-2.5
		c-1.9,0-3,1.5-2.9,2.9c0.1,1.3,1.1,2.3,3.1,3.9c3,2.4,4.5,4.1,4.6,6.8c0.2,4.2-3.5,6.7-7.2,6.7
		C393.5,245.8,390.5,244.4,388.8,242.2z"/>
</g>
<g>
</g>
<g>
</g>
<g>
</g>
<g>
</g>
<g>
</g>
<g>
</g>
</svg>
