<?xml version="1.0" encoding="utf-8"?>
<!-- Generator: Adobe Illustrator 22.0.1, SVG Export Plug-In . SVG Version: 6.00 Build 0)  -->
<svg version="1.1" id="Layer_1" xmlns="http://www.w3.org/2000/svg" xmlns:xlink="http://www.w3.org/1999/xlink" x="0px" y="0px"
	 viewBox="0 0 1000 1000" style="enable-background:new 0 0 1000 1000;" xml:space="preserve">
<style type="text/css">
	.st0{fill:#F5F5F5;}
	.st1{fill:none;stroke:#3CB371;stroke-width:16;stroke-miterlimit:10;}
	.st2{fill:none;stroke:#3CB371;stroke-width:16;stroke-linecap:round;stroke-miterlimit:10;}
	.st3{fill:none;stroke:#F44336;stroke-width:16;stroke-miterlimit:10;}
</style>
<rect class="st0" width="1000" height="1000"/>
<circle class="st1" cx="172.6" cy="389.2" r="50"/>
<circle class="st1" cx="310.3" cy="471.6" r="50"/>
<circle class="st1" cx="147" cy="556" r="70"/>
<circle class="st1" cx="470" cy="471.4" r="50"/>
<circle class="st1" cx="629.3" cy="471.6" r="50"/>
<circle class="st1" cx="868.9" cy="471.6" r="50"/>
<line class="st1" x1="156.3" y1="488.5" x2="165.8" y2="438.9"/>
<line class="st1" x1="265.2" y1="491.5" x2="209.5" y2="523"/>
<line class="st1" x1="360.3" y1="471.6" x2="419.8" y2="471.6"/>
<line class="st1" x1="519.8" y1="471.6" x2="579.3" y2="471.6"/>
<line class="st1" x1="679.3" y1="471.6" x2="818.9" y2="471.6"/>
<line class="st2" x1="194.9" y1="341" x2="212.4" y2="325.6"/>
<circle class="st1" cx="730.8" cy="562.3" r="20"/>
<circle class="st1" cx="828.6" cy="562.7" r="20"/>
<line class="st1" x1="844.6" y1="567.7" x2="883.2" y2="567.7"/>
<circle class="st1" cx="903.2" cy="562.3" r="20"/>
<circle class="st1" cx="599.5" cy="634.8" r="70"/>
<line class="st1" x1="608.7" y1="565.2" x2="618.2" y2="515.7"/>
<circle class="st1" cx="769.1" cy="317.8" r="20"/>
<line class="st1" x1="735.8" y1="537.8" x2="767" y2="331.5"/>
<line class="st3" x1="310.8" y1="452.1" x2="310.8" y2="492.5"/>
<line class="st3" x1="470.4" y1="452.1" x2="470.4" y2="492.5"/>
<line class="st3" x1="452.9" y1="459.5" x2="487.9" y2="459.5"/>
<line class="st1" x1="836.6" y1="507.2" x2="830.7" y2="546.2"/>
<line class="st2" x1="651.6" y1="423.5" x2="669.2" y2="408"/>
</svg>
