<?xml version="1.0" encoding="utf-8"?>
<!-- Generator: Adobe Illustrator 22.0.1, SVG Export Plug-In . SVG Version: 6.00 Build 0)  -->
<svg version="1.1" id="Layer_1" xmlns="http://www.w3.org/2000/svg" xmlns:xlink="http://www.w3.org/1999/xlink" x="0px" y="0px"
	 viewBox="0 0 490.4 50.9" style="enable-background:new 0 0 490.4 50.9;" xml:space="preserve">
<g>
	<path d="M31.5,49.3H19.1L0,0h16.5l9.3,27.1L34.6,0h16L31.5,49.3z"/>
	<path d="M97.6,49.3l-3.4-9.8H80.8l-3.6,9.8H62L81.3,0h13.2l19.4,49.3H97.6z M87.8,18.1L83.4,31h7.7L87.8,18.1z"/>
	<path d="M166.5,49.8l-19.4-28.9v28.4h-13.9V0h15.7l18.3,27.9V0h13.9v49.8C181.2,49.8,166.5,49.8,166.5,49.8z"/>
	<path d="M240.8,49.8l-19.4-28.9v28.4h-13.9V0h15.7l18.3,27.9V0h13.9v49.8C255.6,49.8,240.8,49.8,240.8,49.8z"/>
	<path d="M311.1,49.3l-3.4-9.8h-13.4l-3.6,9.8h-15.2L294.8,0H308l19.4,49.3H311.1z M301.5,18.1L297.1,31h7.7L301.5,18.1z"/>
	<path d="M407.6,49.3h-12.4L376.1,0h16.5l9.3,27.1L410.7,0h16L407.6,49.3z"/>
	<path d="M467.5,50.9c-14.2,0-23-5.4-23-20.9V0h15.2v29.4c0,6.7,2.8,9.3,8,9.3c4.4,0,7.2-2.8,7.2-9.3V0h15.5v29.7
		C490.5,45.2,481.7,50.9,467.5,50.9z"/>
</g>
</svg>
