<?xml version="1.0" encoding="utf-8"?>
<!-- Generator: Adobe Illustrator 22.0.1, SVG Export Plug-In . SVG Version: 6.00 Build 0)  -->
<svg version="1.1" id="Layer_1" xmlns="http://www.w3.org/2000/svg" xmlns:xlink="http://www.w3.org/1999/xlink" x="0px" y="0px"
	 viewBox="0 0 384.2 448.2" style="enable-background:new 0 0 384.2 448.2;" xml:space="preserve">
<style type="text/css">
	.st0{fill:none;stroke:#000000;stroke-width:16;stroke-linecap:round;stroke-miterlimit:10;}
	.st1{fill:none;stroke:#000000;stroke-width:16;stroke-miterlimit:10;}
	.st2{fill:none;stroke:#000000;stroke-width:16;stroke-linecap:round;stroke-linejoin:round;stroke-miterlimit:10;}
</style>
<line class="st0" x1="7.9" y1="271.1" x2="63.9" y2="203.4"/>
<circle cx="253.8" cy="93.8" r="10"/>
<circle cx="147.5" cy="120.5" r="16.7"/>
<g>
	<path class="st1" d="M107.3,45.5c-42.9,3.1-76.7,38.8-76.7,82.5c0,45.7,37,82.7,82.7,82.7c8.7,0,17.1-1.3,24.9-3.8"/>
	<path class="st1" d="M147.2,205.8c27.1,17.8,62.1,22.6,92.9,12.4c28.9-9.6,53.3-32,65.2-60.1c13.1-30.9,10.6-67.7-6.5-96.5
		c-15.6-26.3-42.7-45.3-72.8-50.9c-32-6-66.2,3.6-90.6,25c-3.4,2.9-6.5,6.1-9.5,9.5"/>
	<path class="st1" d="M138.2,206.8c33.5-10.6,57.8-41.9,57.8-78.9c0-45.7-37-82.7-82.7-82.7c-2,0-4,0.1-6,0.2"/>
	<path class="st1" d="M89.9,50c-10.5,18.3-16.5,39.5-16.5,62.1c0,39.6,18.4,74.9,47.1,97.8"/>
</g>
<path d="M206.1,179.1c-1.7-11,5.8-21.3,16.8-23s21.3,5.8,23,16.8"/>
<line class="st1" x1="174" y1="218.4" x2="138.2" y2="444.7"/>
<line class="st1" x1="288.6" y1="185.1" x2="338.6" y2="428.9"/>
<polyline class="st2" points="44.4,227 95.6,275.4 168.8,235.1 "/>
<polyline class="st2" points="295.5,209.2 374.6,237.3 269.8,315 "/>
</svg>
