<?xml version="1.0" encoding="utf-8"?>
<!-- Generator: Adobe Illustrator 22.0.1, SVG Export Plug-In . SVG Version: 6.00 Build 0)  -->
<svg version="1.1" id="Layer_1" xmlns="http://www.w3.org/2000/svg" xmlns:xlink="http://www.w3.org/1999/xlink" x="0px" y="0px"
	 viewBox="0 0 1000 562.5" style="enable-background:new 0 0 1000 562.5;" xml:space="preserve">
<style type="text/css">
	.st0{fill:#F5F5F5;}
	.st1{fill:none;stroke:#3CB371;stroke-width:16;stroke-miterlimit:10;}
	.st2{fill:none;stroke:#3CB371;stroke-width:16;stroke-linecap:round;stroke-miterlimit:10;}
	.st3{fill:none;stroke:#F44336;stroke-width:16;stroke-miterlimit:10;}
</style>
<rect class="st0" width="1000" height="562.5"/>
<circle class="st1" cx="172.6" cy="170.5" r="50"/>
<circle class="st1" cx="310.3" cy="252.9" r="50"/>
<circle class="st1" cx="147" cy="337.3" r="70"/>
<circle class="st1" cx="470" cy="252.6" r="50"/>
<circle class="st1" cx="629.3" cy="252.9" r="50"/>
<circle class="st1" cx="868.9" cy="252.9" r="50"/>
<line class="st1" x1="156.3" y1="269.7" x2="165.8" y2="220.1"/>
<line class="st1" x1="265.2" y1="272.8" x2="209.5" y2="304.3"/>
<line class="st1" x1="360.3" y1="252.9" x2="419.8" y2="252.9"/>
<line class="st1" x1="519.8" y1="252.9" x2="579.3" y2="252.9"/>
<line class="st1" x1="679.3" y1="252.9" x2="818.9" y2="252.9"/>
<line class="st2" x1="194.9" y1="122.3" x2="212.4" y2="106.9"/>
<circle class="st1" cx="730.8" cy="343.6" r="20"/>
<circle class="st1" cx="828.6" cy="343.9" r="20"/>
<line class="st1" x1="844.6" y1="348.9" x2="883.2" y2="348.9"/>
<circle class="st1" cx="903.2" cy="343.6" r="20"/>
<circle class="st1" cx="599.5" cy="416.1" r="70"/>
<line class="st1" x1="608.7" y1="346.5" x2="618.2" y2="296.9"/>
<circle class="st1" cx="769.1" cy="99" r="20"/>
<line class="st1" x1="735.8" y1="319.1" x2="767" y2="112.8"/>
<line class="st3" x1="310.8" y1="233.4" x2="310.8" y2="273.8"/>
<line class="st3" x1="470.4" y1="233.4" x2="470.4" y2="273.8"/>
<line class="st3" x1="452.9" y1="240.8" x2="487.9" y2="240.8"/>
<line class="st1" x1="836.6" y1="288.5" x2="830.7" y2="327.5"/>
<line class="st2" x1="651.6" y1="204.7" x2="669.2" y2="189.3"/>
</svg>
