<?xml version="1.0" encoding="utf-8"?>
<!-- Generator: Adobe Illustrator 22.0.1, SVG Export Plug-In . SVG Version: 6.00 Build 0)  -->
<svg version="1.1" id="Layer_1" xmlns="http://www.w3.org/2000/svg" xmlns:xlink="http://www.w3.org/1999/xlink" x="0px" y="0px"
	 viewBox="0 0 847.7 734.8" style="enable-background:new 0 0 847.7 734.8;" xml:space="preserve">
<style type="text/css">
	.st0{fill:none;stroke:#000000;stroke-width:20;stroke-miterlimit:10;}
	.st1{fill:none;stroke:#000000;stroke-width:16;stroke-miterlimit:10;}
	.st2{fill:none;stroke:#000000;stroke-width:18;stroke-miterlimit:10;}
	.st3{stroke:#000000;stroke-miterlimit:10;}
	.st4{fill:none;stroke:#000000;stroke-width:16;stroke-linecap:round;stroke-miterlimit:10;}
	.st5{enable-background:new    ;}
</style>
<title>network1</title>
<circle class="st0" cx="184.8" cy="184.1" r="172.6"/>
<circle class="st1" cx="111.9" cy="184.1" r="47.1"/>
<circle class="st1" cx="257.8" cy="184.1" r="47.1"/>
<line class="st1" x1="159" y1="175.6" x2="210.6" y2="175.6"/>
<circle class="st2" cx="448.1" cy="607.5" r="118.3"/>
<path class="st3" d="M410,573.9c1.2-2.7,2.9-5.1,5-7.2c11.1-11.7,29.5-12.7,41.7-2.1c0.5,0.4,0.6,0.6,0.1,1.1c-2.5,2.5-5,5-7.6,7.5
	c-0.3,0.3-0.4,0.6-0.9,0.2c-6.3-5.8-16.7-5.7-23.4,0.5c-2.3,2.1-4,4.8-5,7.7c-0.2-0.1-0.3-0.2-0.5-0.3L410,573.9z"/>
<path class="st3" d="M419.8,593.4c0.8,2.3,2.1,4.5,3.7,6.3c3.9,4.6,9.9,6.9,15.9,6.1c2.9-0.3,5.7-1.3,8.1-2.8
	c0.2,0.2,0.5,0.4,0.7,0.6l8.8,6.9c-3.2,3-7.1,5.2-11.3,6.2c-10.1,2.6-19.5,0.9-27.8-5.6c-3.4-2.7-6.1-6.1-8-10L419.8,593.4z"/>
<path class="st3" d="M457.1,610.5l-8.8-6.9c-0.2-0.2-0.5-0.4-0.7-0.6c2-1.5,3.6-3.4,4.7-5.6c0.4-0.9,0.7-1.9,1-2.8
	c0.2-0.7,0.1-0.9-0.7-0.9c-4.9,0-9.8,0-14.7,0c-1,0-1,0-1-1.1c0-3.3,0-6.6,0-9.9c0-0.6,0.1-0.9,0.8-0.9c9,0,18,0,27,0
	c0.5,0,0.8,0,0.9,0.6c1.1,7.9,0.2,15.4-3.9,22.4C460.6,606.9,459,608.9,457.1,610.5z"/>
<path class="st3" d="M419.8,593.4l-9.9,7.7c-1.6-3-2.6-6.2-3-9.6c-0.8-5.7,0.1-11.5,2.6-16.8c0.1-0.3,0.3-0.6,0.5-0.8l9.5,7.3
	c0.2,0.1,0.3,0.2,0.5,0.3C418.6,585.4,418.6,589.5,419.8,593.4z"/>
<circle class="st1" cx="436.4" cy="587.5" r="55.6"/>
<line class="st4" x1="472.8" y1="637.8" x2="499.2" y2="669.7"/>
<circle class="st0" cx="694.8" cy="253.2" r="142.9"/>
<g class="st5">
	<path d="M691.8,198.7c-14.3,0-22,9.7-28.2,9.7c-5.1,0-10.1-5.3-10.1-10.8c0-9,16.3-19.6,38.7-19.6c24.4,0,43.3,12.1,43.3,37.8
		c0,31.2-30.1,31.2-31.9,56.3c-0.4,7.3-0.2,11.9-11.7,11.9c-8.1,0-12.5-2.4-12.5-12.1c0-28.8,33.2-34.5,33.2-54.6
		C712.7,206,704.2,198.7,691.8,198.7z M692.9,325.5c-8.8,0-14.5-5.9-14.5-14.5s5.7-14.5,14.5-14.5c8.6,0,14.3,5.9,14.3,14.5
		S701.5,325.5,692.9,325.5z"/>
</g>
<line class="st0" x1="352.6" y1="217.1" x2="551.9" y2="243.2"/>
<line class="st0" x1="534.1" y1="526.4" x2="643.1" y2="386.5"/>
</svg>
