<?xml version="1.0" encoding="iso-8859-1"?>
<!-- Generator: Adobe Illustrator 21.1.0, SVG Export Plug-In . SVG Version: 6.00 Build 0)  -->
<svg version="1.1" id="Layer_1" xmlns="http://www.w3.org/2000/svg" xmlns:xlink="http://www.w3.org/1999/xlink" x="0px" y="0px"
	 viewBox="0 0 384.211 448.246" style="enable-background:new 0 0 384.211 448.246;" xml:space="preserve">
<line style="fill:none;stroke:#000000;stroke-width:16;stroke-linecap:round;stroke-miterlimit:10;" x1="7.895" y1="271.093" x2="63.937" y2="203.375"/>
<circle cx="253.754" cy="93.757" r="10"/>
<circle cx="147.498" cy="120.482" r="16.725"/>
<g>
	<path style="fill:none;stroke:#000000;stroke-width:16;stroke-miterlimit:10;" d="M107.27,45.453
		c-42.893,3.057-76.748,38.798-76.748,82.47c0,45.678,37.029,82.707,82.707,82.707c8.687,0,17.057-1.346,24.923-3.83"/>
	<path style="fill:none;stroke:#000000;stroke-width:16;stroke-miterlimit:10;" d="M147.24,205.752
		c27.094,17.8,62.135,22.636,92.941,12.394c28.942-9.623,53.282-31.997,65.162-60.104c13.059-30.897,10.629-67.653-6.474-96.52
		c-15.591-26.316-42.743-45.289-72.808-50.904c-31.996-5.975-66.155,3.589-90.598,25.029c-3.362,2.949-6.535,6.113-9.498,9.462"/>
	<path style="fill:none;stroke:#000000;stroke-width:16;stroke-miterlimit:10;" d="M138.152,206.801
		c33.496-10.574,57.784-41.886,57.784-78.878c0-45.678-37.029-82.707-82.707-82.707c-2.006,0-3.988,0.097-5.959,0.237"/>
	<path style="fill:none;stroke:#000000;stroke-width:16;stroke-miterlimit:10;" d="M89.878,50
		c-10.497,18.306-16.5,39.518-16.5,62.133c0,39.594,18.401,74.886,47.112,97.806"/>
</g>
<path d="M245.648,155.797c1.732,10.997-5.779,21.317-16.776,23.049c-10.997,1.732-21.317-5.779-23.049-16.776"/>
<line style="fill:none;stroke:#000000;stroke-width:16;stroke-miterlimit:10;" x1="174.007" y1="218.386" x2="138.152" y2="444.737"/>
<line style="fill:none;stroke:#000000;stroke-width:16;stroke-miterlimit:10;" x1="288.639" y1="185.124" x2="338.596" y2="428.947"/>
<polyline style="fill:none;stroke:#000000;stroke-width:16;stroke-linecap:round;stroke-linejoin:round;stroke-miterlimit:10;" points="
	44.361,227.03 95.614,275.439 168.754,235.086 "/>
<polyline style="fill:none;stroke:#000000;stroke-width:16;stroke-linecap:round;stroke-linejoin:round;stroke-miterlimit:10;" points="
	295.454,209.199 374.561,237.304 269.818,315.04 "/>
</svg>
